<svg width="2379" height="39" viewBox="0 0 2379 39" fill="none" xmlns="http://www.w3.org/2000/svg">
<path opacity="0.1" d="M0.154965 37.6817L-0.810811 37.4223L-1.14904 38.6817H0.154965L0.154965 37.6817ZM9.93097 1.2817V0.281699H9.1641L8.96519 1.02232L9.93097 1.2817ZM55.743 1.2817L56.7097 1.53759L57.0421 0.281699H55.743V1.2817ZM53.403 10.1217V11.1217H54.1727L54.3697 10.3776L53.403 10.1217ZM19.031 10.1217V9.1217H18.2642L18.0652 9.86224L19.031 10.1217ZM17.159 17.0897L16.1932 16.8302L15.8548 18.0897H17.159V17.0897ZM47.891 17.0897L48.8573 17.347L49.1921 16.0897H47.891V17.0897ZM45.551 25.8777V26.8777H46.3195L46.5173 26.135L45.551 25.8777ZM14.819 25.8777V24.8777H14.0522L13.8532 25.6182L14.819 25.8777ZM11.647 37.6817V38.6817H12.4137L12.6127 37.9412L11.647 37.6817ZM1.12074 37.9411L10.8967 1.54108L8.96519 1.02232L-0.810811 37.4223L1.12074 37.9411ZM9.93097 2.2817L55.743 2.2817V0.281699L9.93097 0.281699V2.2817ZM54.7763 1.02581L52.4363 9.86581L54.3697 10.3776L56.7097 1.53759L54.7763 1.02581ZM53.403 9.1217L19.031 9.1217V11.1217L53.403 11.1217V9.1217ZM18.0652 9.86224L16.1932 16.8302L18.1247 17.3492L19.9967 10.3812L18.0652 9.86224ZM17.159 18.0897L47.891 18.0897V16.0897L17.159 16.0897V18.0897ZM46.9246 16.8324L44.5846 25.6204L46.5173 26.135L48.8573 17.347L46.9246 16.8324ZM45.551 24.8777L14.819 24.8777V26.8777L45.551 26.8777V24.8777ZM13.8532 25.6182L10.6812 37.4222L12.6127 37.9412L15.7847 26.1372L13.8532 25.6182ZM11.647 36.6817H0.154965L0.154965 38.6817H11.647V36.6817ZM108.486 18.9097L107.521 18.6504L107.52 18.6523L108.486 18.9097ZM98.4504 33.8337L98.9782 34.6831L98.9826 34.6803L98.4504 33.8337ZM64.9624 35.8097L64.5259 36.7094L64.9624 35.8097ZM57.8904 28.7897L56.9604 29.1574L56.9642 29.1667L57.8904 28.7897ZM57.6824 18.5457L58.6478 18.8066L58.6483 18.8046L57.6824 18.5457ZM62.3104 1.2817V0.281699H61.5432L61.3445 1.02277L62.3104 1.2817ZM73.8024 1.2817L74.7688 1.53881L75.1032 0.281699H73.8024V1.2817ZM69.2784 18.2857L70.2438 18.5466L70.2448 18.5428L69.2784 18.2857ZM70.7344 26.8137L70.0598 27.5519L70.0665 27.558L70.0732 27.5639L70.7344 26.8137ZM91.0664 26.9177L91.569 27.7822L91.5765 27.7778L91.0664 26.9177ZM97.0984 18.5457L98.0632 18.8088L98.0643 18.8046L97.0984 18.5457ZM101.726 1.2817V0.281699H100.959L100.761 1.02277L101.726 1.2817ZM113.218 1.2817L114.184 1.54096L114.522 0.281699H113.218V1.2817ZM107.52 18.6523C105.731 25.3695 102.508 30.1019 97.9182 32.9871L98.9826 34.6803C104.099 31.4642 107.567 26.2473 109.453 19.1671L107.52 18.6523ZM97.9226 32.9843C93.282 35.8681 86.9696 37.3577 78.8984 37.3577V39.3577C87.1899 39.3577 93.9121 37.8313 98.9782 34.6831L97.9226 32.9843ZM78.8984 37.3577C73.1927 37.3577 68.7142 36.5184 65.3989 34.91L64.5259 36.7094C68.2132 38.4983 73.0254 39.3577 78.8984 39.3577V37.3577ZM65.3989 34.91C62.0709 33.2954 59.9183 31.1196 58.8166 28.4127L56.9642 29.1667C58.2892 32.4225 60.8512 34.9266 64.5259 36.7094L65.3989 34.91ZM58.8204 28.422C57.7384 25.6854 57.6501 22.4981 58.6478 18.8066L56.717 18.2848C55.6348 22.2893 55.685 25.9314 56.9604 29.1574L58.8204 28.422ZM58.6483 18.8046L63.2763 1.54063L61.3445 1.02277L56.7165 18.2868L58.6483 18.8046ZM62.3104 2.2817L73.8024 2.2817V0.281699L62.3104 0.281699V2.2817ZM72.836 1.02459L68.312 18.0286L70.2448 18.5428L74.7688 1.53881L72.836 1.02459ZM68.313 18.0248C67.2262 22.0463 67.654 25.3535 70.0598 27.5519L71.409 26.0755C69.7935 24.5993 69.2507 22.2211 70.2438 18.5466L68.313 18.0248ZM70.0732 27.5639C72.38 29.597 75.8219 30.5177 80.1984 30.5177V28.5177C76.0469 28.5177 73.1795 27.6357 71.3956 26.0635L70.0732 27.5639ZM80.1984 30.5177C84.5975 30.5177 88.4028 29.623 91.569 27.7822L90.5638 26.0532C87.7673 27.6791 84.3273 28.5177 80.1984 28.5177V30.5177ZM91.5765 27.7778C94.8129 25.8586 96.9652 22.8346 98.0632 18.8088L96.1336 18.2826C95.1516 21.8835 93.2826 24.4408 90.5563 26.0576L91.5765 27.7778ZM98.0643 18.8046L102.692 1.54063L100.761 1.02277L96.1325 18.2868L98.0643 18.8046ZM101.726 2.2817L113.218 2.2817V0.281699L101.726 0.281699V2.2817ZM112.253 1.02244L107.521 18.6504L109.452 19.169L114.184 1.54096L112.253 1.02244ZM113.397 37.6817L112.431 37.4223L112.093 38.6817H113.397V37.6817ZM123.173 1.2817V0.281699H122.406L122.207 1.02232L123.173 1.2817ZM134.665 1.2817L135.631 1.5405L135.968 0.281699H134.665V1.2817ZM127.281 28.8417L126.315 28.5829L125.978 29.8417H127.281V28.8417ZM156.245 28.8417L157.21 29.1029L157.552 27.8417H156.245V28.8417ZM153.853 37.6817V38.6817H154.619L154.818 37.9429L153.853 37.6817ZM114.363 37.9411L124.139 1.54108L122.207 1.02232L112.431 37.4223L114.363 37.9411ZM123.173 2.2817L134.665 2.2817V0.281699L123.173 0.281699V2.2817ZM133.699 1.0229L126.315 28.5829L128.247 29.1005L135.631 1.5405L133.699 1.0229ZM127.281 29.8417H156.245V27.8417H127.281V29.8417ZM155.28 28.5805L152.888 37.4205L154.818 37.9429L157.21 29.1029L155.28 28.5805ZM153.853 36.6817H113.397V38.6817H153.853V36.6817ZM161.589 37.6817L160.623 37.4223L160.285 38.6817H161.589V37.6817ZM171.365 1.2817V0.281699H170.598L170.399 1.02232L171.365 1.2817ZM182.857 1.2817L183.822 1.5405L184.16 0.281699H182.857V1.2817ZM175.473 28.8417L174.507 28.5829L174.169 29.8417H175.473V28.8417ZM204.437 28.8417L205.402 29.1029L205.743 27.8417H204.437V28.8417ZM202.045 37.6817V38.6817H202.81L203.01 37.9429L202.045 37.6817ZM162.554 37.9411L172.33 1.54108L170.399 1.02232L160.623 37.4223L162.554 37.9411ZM171.365 2.2817L182.857 2.2817V0.281699L171.365 0.281699V2.2817ZM181.891 1.0229L174.507 28.5829L176.438 29.1005L183.822 1.5405L181.891 1.0229ZM175.473 29.8417H204.437V27.8417H175.473V29.8417ZM203.471 28.5805L201.079 37.4205L203.01 37.9429L205.402 29.1029L203.471 28.5805ZM202.045 36.6817H161.589V38.6817H202.045V36.6817ZM209.572 26.6057L208.606 26.3459L208.267 27.6057H209.572V26.6057ZM211.964 17.7137V16.7137H211.197L210.998 17.4539L211.964 17.7137ZM239.368 17.7137L240.334 17.9735L240.673 16.7137H239.368V17.7137ZM236.976 26.6057V27.6057H237.743L237.942 26.8655L236.976 26.6057ZM210.538 26.8655L212.93 17.9735L210.998 17.4539L208.606 26.3459L210.538 26.8655ZM211.964 18.7137L239.368 18.7137V16.7137L211.964 16.7137V18.7137ZM238.402 17.4539L236.01 26.3459L237.942 26.8655L240.334 17.9735L238.402 17.4539ZM236.976 25.6057L209.572 25.6057V27.6057L236.976 27.6057V25.6057ZM245.722 13.9177L246.595 14.4053L246.597 14.4005L245.722 13.9177ZM252.17 6.8977L251.599 6.07658L251.594 6.0799L252.17 6.8977ZM293.822 3.8297L293.36 4.71656L293.363 4.71813L293.822 3.8297ZM300.426 13.2417L300.623 14.2221L301.475 14.0509L301.424 13.183L300.426 13.2417ZM288.518 15.6337L287.52 15.7002L287.596 16.8389L288.715 16.6141L288.518 15.6337ZM285.086 11.0057L284.65 11.9059L284.662 11.9115L285.086 11.0057ZM263.974 11.1617L264.33 12.0962L264.339 12.0925L263.974 11.1617ZM257.526 15.5817L256.728 14.9793L256.726 14.9817L257.526 15.5817ZM258.878 27.4377L258.344 28.2835L258.352 28.2883L258.359 28.2929L258.878 27.4377ZM279.782 27.9577L279.415 27.0275L279.41 27.0292L279.782 27.9577ZM285.814 23.1217L286.011 22.1413L285.338 22.006L284.97 22.5857L285.814 23.1217ZM297.202 25.4097L298.088 25.8737L298.707 24.6921L297.399 24.4293L297.202 25.4097ZM291.17 32.6377L290.563 31.843L290.557 31.8472L291.17 32.6377ZM281.81 36.9537L282.05 37.9244L282.059 37.9223L281.81 36.9537ZM249.778 34.2497L249.231 35.087L249.234 35.0891L249.778 34.2497ZM244.486 22.6017C244.486 19.6487 245.189 16.9224 246.595 14.4053L244.849 13.4301C243.273 16.2517 242.486 19.3147 242.486 22.6017H244.486ZM246.597 14.4005C248.007 11.8438 250.047 9.61399 252.745 7.71551L251.594 6.0799C248.676 8.13342 246.418 10.5836 244.846 13.4349L246.597 14.4005ZM252.74 7.71881C255.474 5.81901 258.798 4.31894 262.732 3.23369L262.2 1.30571C258.091 2.43912 254.551 4.02439 251.599 6.07659L252.74 7.71881ZM262.732 3.23369C266.65 2.15285 271.116 1.6057 276.142 1.6057V-0.394301C270.975 -0.394301 266.324 0.167886 262.2 1.30571L262.732 3.23369ZM276.142 1.6057C283.734 1.6057 289.441 2.67482 293.36 4.71655L294.284 2.94285C289.952 0.68591 283.872 -0.394301 276.142 -0.394301V1.6057ZM293.363 4.71813C297.259 6.73122 299.209 9.58012 299.427 13.3004L301.424 13.183C301.158 8.65261 298.704 5.22684 294.281 2.94127L293.363 4.71813ZM300.229 12.2613L288.321 14.6533L288.715 16.6141L300.623 14.2221L300.229 12.2613ZM289.516 15.5672C289.349 13.0667 287.933 11.2337 285.509 10.0999L284.662 11.9115C286.537 12.7884 287.409 14.0407 287.52 15.7002L289.516 15.5672ZM285.521 10.1055C283.164 8.96472 279.667 8.4457 275.154 8.4457V10.4457C279.584 10.4457 282.709 10.9667 284.65 11.9059L285.521 10.1055ZM275.154 8.4457C270.539 8.4457 266.677 9.02548 263.608 10.2309L264.339 12.0925C267.095 11.0099 270.686 10.4457 275.154 10.4457V8.4457ZM263.618 10.2272C260.59 11.3805 258.261 12.9477 256.728 14.9793L258.324 16.1841C259.564 14.5411 261.533 13.1615 264.33 12.0962L263.618 10.2272ZM256.726 14.9817C255.258 16.9389 254.498 19.0699 254.498 21.3537H256.498C256.498 19.5469 257.09 17.8298 258.326 16.1817L256.726 14.9817ZM254.498 21.3537C254.498 24.3363 255.804 26.6815 258.344 28.2835L259.411 26.5919C257.444 25.3512 256.498 23.6404 256.498 21.3537H254.498ZM258.359 28.2929C260.887 29.8247 264.719 30.5177 269.694 30.5177V28.5177C264.823 28.5177 261.445 27.8241 259.396 26.5825L258.359 28.2929ZM269.694 30.5177C273.891 30.5177 277.393 29.9902 280.153 28.8862L279.41 27.0292C276.97 28.0052 273.747 28.5177 269.694 28.5177V30.5177ZM280.149 28.8879C282.961 27.778 285.147 26.0373 286.658 23.6577L284.97 22.5857C283.707 24.5741 281.872 26.0574 279.415 27.0275L280.149 28.8879ZM285.617 24.1021L297.005 26.3901L297.399 24.4293L286.011 22.1413L285.617 24.1021ZM296.316 24.9457C294.855 27.7346 292.937 30.0291 290.563 31.843L291.777 33.4324C294.394 31.433 296.498 28.9088 298.088 25.8737L296.316 24.9457ZM290.557 31.8472C288.227 33.6521 285.24 35.0401 281.561 35.9851L282.059 37.9223C285.937 36.926 289.189 35.4367 291.782 33.4283L290.557 31.8472ZM281.569 35.983C277.893 36.8937 273.386 37.3577 268.03 37.3577V39.3577C273.49 39.3577 278.169 38.8857 282.05 37.9244L281.569 35.983ZM268.03 37.3577C260.182 37.3577 254.32 35.9999 250.321 33.4103L249.234 35.0891C253.694 37.9768 260 39.3577 268.03 39.3577V37.3577ZM250.324 33.4124C246.414 30.8591 244.486 27.292 244.486 22.6017H242.486C242.486 27.9647 244.752 32.163 249.231 35.087L250.324 33.4124ZM314.953 37.6817L313.987 37.4222L313.649 38.6817H314.953V37.6817ZM318.697 23.7457L319.663 24.0052L319.783 23.5567L319.519 23.1753L318.697 23.7457ZM303.097 1.2817V0.281699H301.185L302.276 1.85209L303.097 1.2817ZM316.721 1.2817L317.546 0.715567L317.248 0.281699H316.721V1.2817ZM326.185 15.0617L325.361 15.6278L325.985 16.5368L326.829 15.8269L326.185 15.0617ZM342.565 1.2817V0.281699L342.201 0.281699L341.921 0.516473L342.565 1.2817ZM357.593 1.2817L358.238 2.04601L360.329 0.281699L357.593 0.281699V1.2817ZM329.981 24.5777L329.336 23.8134L329.097 24.0151L329.016 24.3172L329.981 24.5777ZM326.445 37.6817V38.6817H327.211L327.411 37.9422L326.445 37.6817ZM315.919 37.9412L319.663 24.0052L317.731 23.4862L313.987 37.4222L315.919 37.9412ZM319.519 23.1753L303.919 0.711304L302.276 1.85209L317.876 24.3161L319.519 23.1753ZM303.097 2.2817L316.721 2.2817V0.281699L303.097 0.281699V2.2817ZM315.897 1.84783L325.361 15.6278L327.01 14.4956L317.546 0.715567L315.897 1.84783ZM326.829 15.8269L343.209 2.04693L341.921 0.516473L325.541 14.2965L326.829 15.8269ZM342.565 2.2817H357.593V0.281699H342.565V2.2817ZM356.948 0.517385L329.336 23.8134L330.626 25.342L358.238 2.04601L356.948 0.517385ZM329.016 24.3172L325.48 37.4212L327.411 37.9422L330.947 24.8382L329.016 24.3172ZM326.445 36.6817H314.953V38.6817H326.445V36.6817ZM355.917 13.9177L356.79 14.4053L356.793 14.4005L355.917 13.9177ZM362.365 6.8977L361.794 6.07658L361.79 6.0799L362.365 6.8977ZM404.017 3.8297L403.555 4.71656L403.558 4.71813L404.017 3.8297ZM410.621 13.2417L410.818 14.2221L411.67 14.0509L411.619 13.183L410.621 13.2417ZM398.713 15.6337L397.715 15.7002L397.791 16.8389L398.91 16.6141L398.713 15.6337ZM395.281 11.0057L394.845 11.9059L394.857 11.9115L395.281 11.0057ZM374.169 11.1617L374.525 12.0962L374.535 12.0925L374.169 11.1617ZM367.721 15.5817L366.923 14.9793L366.921 14.9817L367.721 15.5817ZM369.073 27.4377L368.54 28.2835L368.547 28.2883L368.555 28.2929L369.073 27.4377ZM389.977 27.9577L389.61 27.0275L389.606 27.0292L389.977 27.9577ZM396.009 23.1217L396.206 22.1413L395.533 22.006L395.165 22.5857L396.009 23.1217ZM407.397 25.4097L408.283 25.8737L408.902 24.6921L407.594 24.4293L407.397 25.4097ZM401.365 32.6377L400.758 31.843L400.753 31.8472L401.365 32.6377ZM392.005 36.9537L392.245 37.9244L392.254 37.9223L392.005 36.9537ZM359.973 34.2497L359.426 35.087L359.43 35.0891L359.973 34.2497ZM354.681 22.6017C354.681 19.6487 355.384 16.9224 356.79 14.4053L355.044 13.4301C353.468 16.2517 352.681 19.3147 352.681 22.6017H354.681ZM356.793 14.4005C358.202 11.8438 360.243 9.61399 362.941 7.71551L361.79 6.0799C358.871 8.13342 356.613 10.5836 355.041 13.4349L356.793 14.4005ZM362.936 7.71881C365.669 5.81901 368.993 4.31894 372.927 3.23369L372.395 1.30571C368.286 2.43912 364.747 4.02439 361.794 6.07659L362.936 7.71881ZM372.927 3.23369C376.845 2.15285 381.312 1.6057 386.337 1.6057V-0.394301C381.17 -0.394301 376.52 0.167886 372.395 1.30571L372.927 3.23369ZM386.337 1.6057C393.93 1.6057 399.636 2.67482 403.555 4.71655L404.479 2.94285C400.147 0.68591 394.067 -0.394301 386.337 -0.394301V1.6057ZM403.558 4.71813C407.454 6.73122 409.404 9.58012 409.623 13.3004L411.619 13.183C411.353 8.65261 408.9 5.22684 404.476 2.94127L403.558 4.71813ZM410.424 12.2613L398.516 14.6533L398.91 16.6141L410.818 14.2221L410.424 12.2613ZM399.711 15.5672C399.544 13.0667 398.129 11.2337 395.705 10.0999L394.857 11.9115C396.732 12.7884 397.605 14.0407 397.715 15.7002L399.711 15.5672ZM395.717 10.1055C393.359 8.96472 389.862 8.4457 385.349 8.4457V10.4457C389.78 10.4457 392.905 10.9667 394.845 11.9059L395.717 10.1055ZM385.349 8.4457C380.734 8.4457 376.872 9.02548 373.803 10.2309L374.535 12.0925C377.29 11.0099 380.881 10.4457 385.349 10.4457V8.4457ZM373.813 10.2272C370.786 11.3805 368.456 12.9477 366.923 14.9793L368.519 16.1841C369.759 14.5411 371.728 13.1615 374.525 12.0962L373.813 10.2272ZM366.921 14.9817C365.453 16.9389 364.693 19.0699 364.693 21.3537H366.693C366.693 19.5469 367.285 17.8298 368.521 16.1817L366.921 14.9817ZM364.693 21.3537C364.693 24.3363 366 26.6815 368.54 28.2835L369.607 26.5919C367.64 25.3512 366.693 23.6404 366.693 21.3537H364.693ZM368.555 28.2929C371.082 29.8247 374.914 30.5177 379.889 30.5177V28.5177C375.018 28.5177 371.64 27.8241 369.591 26.5825L368.555 28.2929ZM379.889 30.5177C384.087 30.5177 387.588 29.9902 390.348 28.8862L389.606 27.0292C387.166 28.0052 383.942 28.5177 379.889 28.5177V30.5177ZM390.344 28.8879C393.156 27.778 395.342 26.0373 396.853 23.6577L395.165 22.5857C393.902 24.5741 392.068 26.0574 389.61 27.0275L390.344 28.8879ZM395.812 24.1021L407.2 26.3901L407.594 24.4293L396.206 22.1413L395.812 24.1021ZM406.511 24.9457C405.05 27.7346 403.133 30.0291 400.758 31.843L401.972 33.4324C404.589 31.433 406.693 28.9088 408.283 25.8737L406.511 24.9457ZM400.753 31.8472C398.423 33.6521 395.435 35.0401 391.756 35.9851L392.254 37.9223C396.132 36.926 399.385 35.4367 401.977 33.4283L400.753 31.8472ZM391.765 35.983C388.088 36.8937 383.581 37.3577 378.225 37.3577V39.3577C383.685 39.3577 388.364 38.8857 392.245 37.9244L391.765 35.983ZM378.225 37.3577C370.377 37.3577 364.516 35.9999 360.517 33.4103L359.43 35.0891C363.889 37.9768 370.195 39.3577 378.225 39.3577V37.3577ZM360.52 33.4124C356.609 30.8591 354.681 27.292 354.681 22.6017H352.681C352.681 27.9647 354.948 32.163 359.426 35.087L360.52 33.4124ZM411.991 37.6817L411.025 37.4223L410.687 38.6817H411.991V37.6817ZM421.767 1.2817V0.281699H421L420.801 1.02232L421.767 1.2817ZM433.259 1.2817L434.225 1.5405L434.562 0.281699H433.259V1.2817ZM425.875 28.8417L424.909 28.5829L424.572 29.8417H425.875V28.8417ZM454.839 28.8417L455.804 29.1029L456.145 27.8417H454.839V28.8417ZM452.447 37.6817V38.6817H453.212L453.412 37.9429L452.447 37.6817ZM412.957 37.9411L422.733 1.54108L420.801 1.02232L411.025 37.4223L412.957 37.9411ZM421.767 2.2817L433.259 2.2817V0.281699L421.767 0.281699V2.2817ZM432.293 1.0229L424.909 28.5829L426.841 29.1005L434.225 1.5405L432.293 1.0229ZM425.875 29.8417H454.839V27.8417H425.875V29.8417ZM453.874 28.5805L451.482 37.4205L453.412 37.9429L455.804 29.1029L453.874 28.5805ZM452.447 36.6817L411.991 36.6817V38.6817L452.447 38.6817V36.6817ZM460.182 37.6817L459.217 37.4223L458.878 38.6817H460.182V37.6817ZM469.958 1.2817V0.281699H469.191L468.993 1.02232L469.958 1.2817ZM515.77 1.2817L516.736 1.54013L517.073 0.281699H515.77V1.2817ZM513.586 9.4457V10.4457H514.354L514.552 9.70413L513.586 9.4457ZM478.902 9.4457V8.4457H478.135L477.937 9.18637L478.902 9.4457ZM477.394 15.0617L476.429 14.8024L476.09 16.0617H477.394V15.0617ZM508.49 15.0617L509.456 15.3217L509.795 14.0617H508.49V15.0617ZM506.306 23.1737V24.1737H507.073L507.272 23.4337L506.306 23.1737ZM475.262 23.1737V22.1737H474.497L474.297 22.9126L475.262 23.1737ZM473.546 29.5177L472.581 29.2566L472.24 30.5177H473.546V29.5177ZM508.594 29.5177L509.56 29.7761L509.897 28.5177H508.594V29.5177ZM506.41 37.6817V38.6817H507.178L507.376 37.9401L506.41 37.6817ZM461.148 37.9411L470.924 1.54108L468.993 1.02232L459.217 37.4223L461.148 37.9411ZM469.958 2.2817L515.77 2.2817V0.281699L469.958 0.281699V2.2817ZM514.804 1.02327L512.62 9.18727L514.552 9.70413L516.736 1.54013L514.804 1.02327ZM513.586 8.4457L478.902 8.4457V10.4457L513.586 10.4457V8.4457ZM477.937 9.18637L476.429 14.8024L478.36 15.321L479.868 9.70503L477.937 9.18637ZM477.394 16.0617L508.49 16.0617V14.0617L477.394 14.0617V16.0617ZM507.525 14.8017L505.341 22.9137L507.272 23.4337L509.456 15.3217L507.525 14.8017ZM506.306 22.1737L475.262 22.1737V24.1737L506.306 24.1737V22.1737ZM474.297 22.9126L472.581 29.2566L474.512 29.7788L476.228 23.4348L474.297 22.9126ZM473.546 30.5177L508.594 30.5177V28.5177L473.546 28.5177V30.5177ZM507.628 29.2593L505.444 37.4233L507.376 37.9401L509.56 29.7761L507.628 29.2593ZM506.41 36.6817L460.182 36.6817V38.6817L506.41 38.6817V36.6817ZM530.819 37.6817L529.853 37.4223L529.515 38.6817H530.819V37.6817ZM540.595 1.2817V0.281699H539.828L539.629 1.02232L540.595 1.2817ZM586.407 1.2817L587.373 1.54013L587.71 0.281699H586.407V1.2817ZM584.223 9.4457V10.4457H584.991L585.189 9.70413L584.223 9.4457ZM549.539 9.4457V8.4457H548.772L548.573 9.18637L549.539 9.4457ZM548.031 15.0617L547.065 14.8024L546.727 16.0617H548.031V15.0617ZM579.127 15.0617L580.093 15.3217L580.432 14.0617H579.127V15.0617ZM576.943 23.1737V24.1737H577.709L577.909 23.4337L576.943 23.1737ZM545.899 23.1737V22.1737H545.134L544.934 22.9126L545.899 23.1737ZM544.183 29.5177L543.218 29.2566L542.877 30.5177H544.183V29.5177ZM579.231 29.5177L580.197 29.7761L580.534 28.5177H579.231V29.5177ZM577.047 37.6817V38.6817H577.815L578.013 37.9401L577.047 37.6817ZM531.785 37.9411L541.561 1.54108L539.629 1.02232L529.853 37.4223L531.785 37.9411ZM540.595 2.2817L586.407 2.2817V0.281699L540.595 0.281699V2.2817ZM585.441 1.02327L583.257 9.18727L585.189 9.70413L587.373 1.54013L585.441 1.02327ZM584.223 8.4457L549.539 8.4457V10.4457L584.223 10.4457V8.4457ZM548.573 9.18637L547.065 14.8024L548.997 15.321L550.505 9.70503L548.573 9.18637ZM548.031 16.0617L579.127 16.0617V14.0617L548.031 14.0617V16.0617ZM578.161 14.8017L575.977 22.9137L577.909 23.4337L580.093 15.3217L578.161 14.8017ZM576.943 22.1737H545.899V24.1737H576.943V22.1737ZM544.934 22.9126L543.218 29.2566L545.148 29.7788L546.864 23.4348L544.934 22.9126ZM544.183 30.5177H579.231V28.5177H544.183V30.5177ZM578.265 29.2593L576.081 37.4233L578.013 37.9401L580.197 29.7761L578.265 29.2593ZM577.047 36.6817L530.819 36.6817V38.6817L577.047 38.6817V36.6817ZM601.946 1.2817L602.888 0.945852L602.651 0.281699H601.946V1.2817ZM610.994 26.6577L610.052 26.9935L610.616 28.5757L611.738 27.3257L610.994 26.6577ZM633.77 1.2817V0.281699H633.324L633.026 0.613746L633.77 1.2817ZM647.29 1.2817L648.034 1.94949L649.531 0.281699H647.29V1.2817ZM614.634 37.6817V38.6817H615.08L615.378 38.3495L614.634 37.6817ZM602.83 37.6817L601.89 38.0216L602.128 38.6817H602.83V37.6817ZM589.674 1.2817V0.281699H588.249L588.734 1.62161L589.674 1.2817ZM601.004 1.61755L610.052 26.9935L611.936 26.3219L602.888 0.945852L601.004 1.61755ZM611.738 27.3257L634.514 1.94965L633.026 0.613746L610.25 25.9897L611.738 27.3257ZM633.77 2.2817L647.29 2.2817V0.281699L633.77 0.281699V2.2817ZM646.546 0.613911L613.89 37.0139L615.378 38.3495L648.034 1.94949L646.546 0.613911ZM614.634 36.6817L602.83 36.6817V38.6817L614.634 38.6817V36.6817ZM603.771 37.3418L590.615 0.941791L588.734 1.62161L601.89 38.0216L603.771 37.3418ZM589.674 2.2817L601.946 2.2817V0.281699L589.674 0.281699V2.2817ZM643.198 37.6817L642.232 37.4223L641.894 38.6817H643.198V37.6817ZM652.974 1.2817V0.281699H652.207L652.008 1.02232L652.974 1.2817ZM698.786 1.2817L699.752 1.54013L700.089 0.281699H698.786V1.2817ZM696.602 9.4457V10.4457H697.37L697.568 9.70413L696.602 9.4457ZM661.918 9.4457V8.4457H661.151L660.952 9.18637L661.918 9.4457ZM660.41 15.0617L659.444 14.8024L659.106 16.0617H660.41V15.0617ZM691.506 15.0617L692.472 15.3217L692.811 14.0617H691.506V15.0617ZM689.322 23.1737V24.1737H690.088L690.288 23.4337L689.322 23.1737ZM658.278 23.1737V22.1737H657.513L657.313 22.9126L658.278 23.1737ZM656.562 29.5177L655.597 29.2566L655.255 30.5177H656.562V29.5177ZM691.61 29.5177L692.576 29.7761L692.913 28.5177H691.61V29.5177ZM689.426 37.6817V38.6817H690.194L690.392 37.9401L689.426 37.6817ZM644.164 37.9411L653.94 1.54108L652.008 1.02232L642.232 37.4223L644.164 37.9411ZM652.974 2.2817L698.786 2.2817V0.281699L652.974 0.281699V2.2817ZM697.82 1.02327L695.636 9.18727L697.568 9.70413L699.752 1.54013L697.82 1.02327ZM696.602 8.4457L661.918 8.4457V10.4457L696.602 10.4457V8.4457ZM660.952 9.18637L659.444 14.8024L661.376 15.321L662.884 9.70503L660.952 9.18637ZM660.41 16.0617L691.506 16.0617V14.0617L660.41 14.0617V16.0617ZM690.54 14.8017L688.356 22.9137L690.288 23.4337L692.472 15.3217L690.54 14.8017ZM689.322 22.1737L658.278 22.1737V24.1737L689.322 24.1737V22.1737ZM657.313 22.9126L655.597 29.2566L657.527 29.7788L659.243 23.4348L657.313 22.9126ZM656.562 30.5177L691.61 30.5177V28.5177L656.562 28.5177V30.5177ZM690.644 29.2593L688.46 37.4233L690.392 37.9401L692.576 29.7761L690.644 29.2593ZM689.426 36.6817L643.198 36.6817V38.6817L689.426 38.6817V36.6817ZM697.737 37.6817L696.771 37.4223L696.433 38.6817H697.737V37.6817ZM707.513 1.2817V0.281699H706.746L706.547 1.02232L707.513 1.2817ZM718.641 1.2817L719.387 0.616107L719.089 0.281699H718.641V1.2817ZM741.365 26.7617L740.619 27.4273L741.852 28.8106L742.331 27.02L741.365 26.7617ZM748.177 1.2817V0.281699H747.409L747.211 1.02342L748.177 1.2817ZM758.993 1.2817L759.959 1.53979L760.295 0.281699H758.993V1.2817ZM749.269 37.6817V38.6817H750.037L750.235 37.9398L749.269 37.6817ZM738.141 37.6817L737.395 38.3473L737.693 38.6817H738.141V37.6817ZM715.417 12.2017L716.163 11.5361L714.932 10.156L714.451 11.9416L715.417 12.2017ZM708.553 37.6817V38.6817H709.319L709.519 37.9418L708.553 37.6817ZM698.703 37.9411L708.479 1.54108L706.547 1.02232L696.771 37.4223L698.703 37.9411ZM707.513 2.2817L718.641 2.2817V0.281699L707.513 0.281699V2.2817ZM717.895 1.94729L740.619 27.4273L742.111 26.0961L719.387 0.616107L717.895 1.94729ZM742.331 27.02L749.143 1.53998L747.211 1.02342L740.399 26.5034L742.331 27.02ZM748.177 2.2817L758.993 2.2817V0.281699L748.177 0.281699V2.2817ZM758.027 1.02361L748.303 37.4236L750.235 37.9398L759.959 1.53979L758.027 1.02361ZM749.269 36.6817H738.141V38.6817H749.269V36.6817ZM738.887 37.0161L716.163 11.5361L714.671 12.8673L737.395 38.3473L738.887 37.0161ZM714.451 11.9416L707.587 37.4216L709.519 37.9418L716.383 12.4618L714.451 11.9416ZM708.553 36.6817H697.737V38.6817H708.553V36.6817ZM775.691 37.6817L774.726 37.4229L774.388 38.6817H775.691V37.6817ZM783.076 10.1217L784.041 10.3805L784.379 9.1217H783.076V10.1217ZM763.628 10.1217L762.662 9.8605L762.321 11.1217H763.628V10.1217ZM766.019 1.2817V0.281699H765.254L765.054 1.0205L766.019 1.2817ZM816.408 1.2817L817.373 1.54289L817.714 0.281699H816.408V1.2817ZM814.016 10.1217V11.1217L814.781 11.1217L814.981 10.3829L814.016 10.1217ZM794.568 10.1217V9.1217H793.8L793.602 9.8629L794.568 10.1217ZM787.183 37.6817V38.6817H787.951L788.149 37.9405L787.183 37.6817ZM776.657 37.9405L784.041 10.3805L782.11 9.8629L774.726 37.4229L776.657 37.9405ZM783.076 9.1217L763.628 9.1217V11.1217L783.076 11.1217V9.1217ZM764.593 10.3829L766.985 1.54289L765.054 1.0205L762.662 9.8605L764.593 10.3829ZM766.019 2.2817L816.408 2.2817V0.281699L766.019 0.281699V2.2817ZM815.442 1.0205L813.05 9.8605L814.981 10.3829L817.373 1.54289L815.442 1.0205ZM814.016 9.1217H794.568V11.1217H814.016V9.1217ZM793.602 9.8629L786.218 37.4229L788.149 37.9405L795.533 10.3805L793.602 9.8629ZM787.183 36.6817H775.691V38.6817H787.183V36.6817ZM872.72 37.6817L871.786 38.0377L872.031 38.6817H872.72V37.6817ZM870.224 31.1297L871.159 30.7737L870.913 30.1297H870.224V31.1297ZM843.756 31.1297V30.1297H843.318L843.021 30.4524L843.756 31.1297ZM837.724 37.6817V38.6817H838.163L838.46 38.359L837.724 37.6817ZM824.256 37.6817L823.527 36.9979L821.949 38.6817H824.256V37.6817ZM858.368 1.2817V0.281699H857.935L857.639 0.597897L858.368 1.2817ZM870.172 1.2817L871.1 0.909166L870.848 0.281699L870.172 0.281699V1.2817ZM884.784 37.6817V38.6817H886.263L885.712 37.3092L884.784 37.6817ZM851.348 22.9137L850.613 22.2358L849.066 23.9137H851.348V22.9137ZM867.052 22.9137V23.9137H868.509L867.985 22.5542L867.052 22.9137ZM862.424 10.9017L863.357 10.5422L862.779 9.04155L861.689 10.2238L862.424 10.9017ZM873.655 37.3257L871.159 30.7737L869.29 31.4857L871.786 38.0377L873.655 37.3257ZM870.224 30.1297L843.756 30.1297V32.1297L870.224 32.1297V30.1297ZM843.021 30.4524L836.989 37.0044L838.46 38.359L844.492 31.807L843.021 30.4524ZM837.724 36.6817H824.256V38.6817H837.724V36.6817ZM824.986 38.3655L859.098 1.9655L857.639 0.597897L823.527 36.9979L824.986 38.3655ZM858.368 2.2817H870.172V0.281699H858.368V2.2817ZM869.244 1.65423L883.856 38.0542L885.712 37.3092L871.1 0.909166L869.244 1.65423ZM884.784 36.6817H872.72V38.6817H884.784V36.6817ZM851.348 23.9137L867.052 23.9137V21.9137L851.348 21.9137V23.9137ZM867.985 22.5542L863.357 10.5422L861.491 11.2612L866.119 23.2732L867.985 22.5542ZM861.689 10.2238L850.613 22.2358L852.083 23.5916L863.159 11.5796L861.689 10.2238ZM891.457 13.8657L890.584 13.3781L891.457 13.8657ZM897.905 6.8977L897.335 6.07658L897.33 6.0799L897.905 6.8977ZM939.557 3.7257L939.107 4.61862L939.557 3.7257ZM946.161 12.8777L946.353 13.8591L947.22 13.6896L947.159 12.8089L946.161 12.8777ZM934.201 15.2177L933.204 15.2889L933.284 16.4161L934.393 16.1991L934.201 15.2177ZM930.769 10.9017L930.352 11.8105L930.361 11.8146L930.37 11.8185L930.769 10.9017ZM909.657 11.1617L910.013 12.0962L910.023 12.0925L909.657 11.1617ZM903.209 15.5817L902.411 14.9793L902.409 14.9817L903.209 15.5817ZM904.717 27.4377L904.201 28.2941L904.208 28.2985L904.216 28.3028L904.717 27.4377ZM926.037 28.3737L926.299 29.3387L926.037 28.3737ZM932.693 24.7337L933.408 25.4333L935.072 23.7337H932.693V24.7337ZM916.469 24.7337L915.503 24.4756L915.167 25.7337H916.469V24.7337ZM918.497 17.1417V16.1417H917.729L917.531 16.8836L918.497 17.1417ZM946.889 17.1417L947.855 17.4009L948.193 16.1417H946.889V17.1417ZM941.377 37.6817V38.6817H942.144L942.343 37.9409L941.377 37.6817ZM932.537 37.6817L931.542 37.5814L931.431 38.6817H932.537V37.6817ZM933.161 31.4937L934.156 31.594L934.408 29.093L932.507 30.7373L933.161 31.4937ZM923.957 36.5897L923.644 35.6401L923.641 35.641L923.957 36.5897ZM894.785 34.2497L894.186 35.0506L894.195 35.0568L894.785 34.2497ZM890.221 22.5497C890.221 19.5967 890.925 16.8704 892.33 14.3533L890.584 13.3781C889.009 16.1997 888.221 19.2627 888.221 22.5497H890.221ZM892.33 14.3533C893.739 11.8303 895.78 9.61585 898.481 7.71551L897.33 6.0799C894.414 8.13155 892.157 10.5625 890.584 13.3781L892.33 14.3533ZM898.476 7.71881C901.209 5.81901 904.533 4.31894 908.467 3.23369L907.935 1.30571C903.827 2.43912 900.287 4.02439 897.335 6.07659L898.476 7.71881ZM908.467 3.23369C912.385 2.15285 916.852 1.6057 921.877 1.6057V-0.394301C916.711 -0.394301 912.06 0.167886 907.935 1.30571L908.467 3.23369ZM921.877 1.6057C929.473 1.6057 935.184 2.64081 939.107 4.61862L940.008 2.83278C935.68 0.650583 929.604 -0.394301 921.877 -0.394301V1.6057ZM939.107 4.61862C942.972 6.56741 944.915 9.33449 945.164 12.9465L947.159 12.8089C946.853 8.37824 944.393 5.04399 940.008 2.83278L939.107 4.61862ZM945.969 11.8963L934.009 14.2363L934.393 16.1991L946.353 13.8591L945.969 11.8963ZM935.199 15.1465C935.028 12.7508 933.575 11.0329 931.169 9.98487L930.37 11.8185C932.262 12.6425 933.098 13.802 933.204 15.2889L935.199 15.1465ZM931.186 9.99287C928.868 8.92884 925.378 8.4457 920.837 8.4457V10.4457C925.31 10.4457 928.441 10.9332 930.352 11.8105L931.186 9.99287ZM920.837 8.4457C916.222 8.4457 912.36 9.02548 909.292 10.2309L910.023 12.0925C912.779 11.0099 916.369 10.4457 920.837 10.4457V8.4457ZM909.301 10.2272C906.274 11.3805 903.944 12.9477 902.411 14.9793L904.008 16.1841C905.247 14.5411 907.217 13.1615 910.013 12.0962L909.301 10.2272ZM902.409 14.9817C900.941 16.9389 900.181 19.0699 900.181 21.3537H902.181C902.181 19.5469 902.773 17.8298 904.009 16.1817L902.409 14.9817ZM900.181 21.3537C900.181 24.3576 901.56 26.7017 904.201 28.2941L905.234 26.5813C903.16 25.3311 902.181 23.6191 902.181 21.3537H900.181ZM904.216 28.3028C906.837 29.8227 910.709 30.5177 915.689 30.5177V28.5177C910.824 28.5177 907.381 27.8261 905.219 26.5726L904.216 28.3028ZM915.689 30.5177C919.836 30.5177 923.379 30.1319 926.299 29.3387L925.775 27.4087C923.079 28.1409 919.724 28.5177 915.689 28.5177V30.5177ZM926.299 29.3387C929.237 28.5409 931.626 27.2526 933.408 25.4333L931.979 24.0341C930.501 25.5428 928.454 26.6811 925.775 27.4087L926.299 29.3387ZM932.693 23.7337L916.469 23.7337V25.7337L932.693 25.7337V23.7337ZM917.435 24.9918L919.463 17.3998L917.531 16.8836L915.503 24.4756L917.435 24.9918ZM918.497 18.1417L946.889 18.1417V16.1417L918.497 16.1417V18.1417ZM945.923 16.8825L940.411 37.4225L942.343 37.9409L947.855 17.4009L945.923 16.8825ZM941.377 36.6817H932.537V38.6817H941.377V36.6817ZM933.532 37.782L934.156 31.594L932.166 31.3934L931.542 37.5814L933.532 37.782ZM932.507 30.7373C930.052 32.8608 927.103 34.4983 923.644 35.6401L924.271 37.5393C927.953 36.3238 931.14 34.5639 933.815 32.2501L932.507 30.7373ZM923.641 35.641C920.222 36.7807 916.396 37.3577 912.153 37.3577V39.3577C916.577 39.3577 920.621 38.7561 924.274 37.5384L923.641 35.641ZM912.153 37.3577C904.399 37.3577 898.866 35.9957 895.376 33.4426L894.195 35.0568C898.193 37.9811 904.238 39.3577 912.153 39.3577V37.3577ZM895.384 33.4488C891.951 30.8822 890.221 27.2923 890.221 22.5497H888.221C888.221 27.8605 890.201 32.0705 894.187 35.0506L895.384 33.4488ZM950.983 37.6817L950.017 37.4223L949.679 38.6817H950.983V37.6817ZM960.759 1.2817V0.281699H959.992L959.793 1.02232L960.759 1.2817ZM1006.57 1.2817L1007.54 1.54013L1007.87 0.281699H1006.57V1.2817ZM1004.39 9.4457V10.4457H1005.15L1005.35 9.70413L1004.39 9.4457ZM969.703 9.4457V8.4457H968.936L968.737 9.18637L969.703 9.4457ZM968.195 15.0617L967.229 14.8024L966.891 16.0617H968.195V15.0617ZM999.291 15.0617L1000.26 15.3217L1000.6 14.0617H999.291V15.0617ZM997.107 23.1737V24.1737H997.873L998.073 23.4337L997.107 23.1737ZM966.063 23.1737V22.1737H965.298L965.098 22.9126L966.063 23.1737ZM964.347 29.5177L963.382 29.2566L963.041 30.5177H964.347V29.5177ZM999.395 29.5177L1000.36 29.7761L1000.7 28.5177H999.395V29.5177ZM997.211 37.6817V38.6817H997.979L998.177 37.9401L997.211 37.6817ZM951.949 37.9411L961.725 1.54108L959.793 1.02232L950.017 37.4223L951.949 37.9411ZM960.759 2.2817L1006.57 2.2817V0.281699L960.759 0.281699V2.2817ZM1005.61 1.02327L1003.42 9.18727L1005.35 9.70413L1007.54 1.54013L1005.61 1.02327ZM1004.39 8.4457L969.703 8.4457V10.4457L1004.39 10.4457V8.4457ZM968.737 9.18637L967.229 14.8024L969.161 15.321L970.669 9.70503L968.737 9.18637ZM968.195 16.0617L999.291 16.0617V14.0617L968.195 14.0617V16.0617ZM998.326 14.8017L996.141 22.9137L998.073 23.4337L1000.26 15.3217L998.326 14.8017ZM997.107 22.1737L966.063 22.1737V24.1737L997.107 24.1737V22.1737ZM965.098 22.9126L963.382 29.2566L965.312 29.7788L967.028 23.4348L965.098 22.9126ZM964.347 30.5177L999.395 30.5177V28.5177L964.347 28.5177V30.5177ZM998.429 29.2593L996.245 37.4233L998.177 37.9401L1000.36 29.7761L998.429 29.2593ZM997.211 36.6817L950.983 36.6817V38.6817L997.211 38.6817V36.6817ZM1005.52 37.6817L1004.56 37.4223L1004.22 38.6817H1005.52V37.6817ZM1015.3 1.2817V0.281699H1014.53L1014.33 1.02232L1015.3 1.2817ZM1026.43 1.2817L1027.17 0.616107L1026.87 0.281699H1026.43V1.2817ZM1049.15 26.7617L1048.4 27.4273L1049.64 28.8106L1050.12 27.02L1049.15 26.7617ZM1055.96 1.2817V0.281699H1055.19L1055 1.02342L1055.96 1.2817ZM1066.78 1.2817L1067.74 1.53979L1068.08 0.281699H1066.78V1.2817ZM1057.05 37.6817V38.6817H1057.82L1058.02 37.9398L1057.05 37.6817ZM1045.93 37.6817L1045.18 38.3473L1045.48 38.6817H1045.93V37.6817ZM1023.2 12.2017L1023.95 11.5361L1022.72 10.156L1022.24 11.9416L1023.2 12.2017ZM1016.34 37.6817V38.6817H1017.1L1017.3 37.9418L1016.34 37.6817ZM1006.49 37.9411L1016.26 1.54108L1014.33 1.02232L1004.56 37.4223L1006.49 37.9411ZM1015.3 2.2817H1026.43V0.281699H1015.3V2.2817ZM1025.68 1.94729L1048.4 27.4273L1049.9 26.0961L1027.17 0.616107L1025.68 1.94729ZM1050.12 27.02L1056.93 1.53998L1055 1.02342L1048.18 26.5034L1050.12 27.02ZM1055.96 2.2817L1066.78 2.2817V0.281699L1055.96 0.281699V2.2817ZM1065.81 1.02361L1056.09 37.4236L1058.02 37.9398L1067.74 1.53979L1065.81 1.02361ZM1057.05 36.6817L1045.93 36.6817V38.6817L1057.05 38.6817V36.6817ZM1046.67 37.0161L1023.95 11.5361L1022.46 12.8673L1045.18 38.3473L1046.67 37.0161ZM1022.24 11.9416L1015.37 37.4216L1017.3 37.9418L1024.17 12.4618L1022.24 11.9416ZM1016.34 36.6817H1005.52V38.6817H1016.34V36.6817ZM1071.93 13.9177L1072.81 14.4053L1072.81 14.4005L1071.93 13.9177ZM1078.38 6.8977L1077.81 6.07658L1077.81 6.0799L1078.38 6.8977ZM1120.03 3.8297L1119.57 4.71656L1119.57 4.71813L1120.03 3.8297ZM1126.64 13.2417L1126.83 14.2221L1127.69 14.0509L1127.63 13.183L1126.64 13.2417ZM1114.73 15.6337L1113.73 15.7002L1113.81 16.8389L1114.93 16.6141L1114.73 15.6337ZM1111.3 11.0057L1110.86 11.9059L1110.87 11.9115L1111.3 11.0057ZM1090.18 11.1617L1090.54 12.0962L1090.55 12.0925L1090.18 11.1617ZM1083.74 15.5817L1082.94 14.9793L1082.94 14.9817L1083.74 15.5817ZM1085.09 27.4377L1084.56 28.2835L1084.56 28.2883L1084.57 28.2929L1085.09 27.4377ZM1105.99 27.9577L1105.63 27.0275L1105.62 27.0292L1105.99 27.9577ZM1112.02 23.1217L1112.22 22.1413L1111.55 22.006L1111.18 22.5857L1112.02 23.1217ZM1123.41 25.4097L1124.3 25.8737L1124.92 24.6921L1123.61 24.4293L1123.41 25.4097ZM1117.38 32.6377L1116.77 31.843L1116.77 31.8472L1117.38 32.6377ZM1108.02 36.9537L1108.26 37.9244L1108.27 37.9223L1108.02 36.9537ZM1075.99 34.2497L1075.44 35.087L1075.45 35.0891L1075.99 34.2497ZM1070.7 22.6017C1070.7 19.6487 1071.4 16.9224 1072.81 14.4053L1071.06 13.4301C1069.48 16.2517 1068.7 19.3147 1068.7 22.6017H1070.7ZM1072.81 14.4005C1074.22 11.8438 1076.26 9.61399 1078.96 7.71551L1077.81 6.0799C1074.89 8.13342 1072.63 10.5836 1071.06 13.4349L1072.81 14.4005ZM1078.95 7.71881C1081.68 5.81901 1085.01 4.31894 1088.94 3.23369L1088.41 1.30571C1084.3 2.43912 1080.76 4.02439 1077.81 6.07659L1078.95 7.71881ZM1088.94 3.23369C1092.86 2.15285 1097.33 1.6057 1102.35 1.6057V-0.394301C1097.19 -0.394301 1092.54 0.167886 1088.41 1.30571L1088.94 3.23369ZM1102.35 1.6057C1109.95 1.6057 1115.65 2.67482 1119.57 4.71655L1120.49 2.94285C1116.16 0.68591 1110.08 -0.394301 1102.35 -0.394301V1.6057ZM1119.57 4.71813C1123.47 6.73122 1125.42 9.58012 1125.64 13.3004L1127.63 13.183C1127.37 8.65261 1124.92 5.22684 1120.49 2.94127L1119.57 4.71813ZM1126.44 12.2613L1114.53 14.6533L1114.93 16.6141L1126.83 14.2221L1126.44 12.2613ZM1115.73 15.5672C1115.56 13.0667 1114.14 11.2337 1111.72 10.0999L1110.87 11.9115C1112.75 12.7884 1113.62 14.0407 1113.73 15.7002L1115.73 15.5672ZM1111.73 10.1055C1109.37 8.96472 1105.88 8.4457 1101.36 8.4457V10.4457C1105.8 10.4457 1108.92 10.9667 1110.86 11.9059L1111.73 10.1055ZM1101.36 8.4457C1096.75 8.4457 1092.89 9.02548 1089.82 10.2309L1090.55 12.0925C1093.31 11.0099 1096.9 10.4457 1101.36 10.4457V8.4457ZM1089.83 10.2272C1086.8 11.3805 1084.47 12.9477 1082.94 14.9793L1084.53 16.1841C1085.77 14.5411 1087.74 13.1615 1090.54 12.0962L1089.83 10.2272ZM1082.94 14.9817C1081.47 16.9389 1080.71 19.0699 1080.71 21.3537H1082.71C1082.71 19.5469 1083.3 17.8298 1084.54 16.1817L1082.94 14.9817ZM1080.71 21.3537C1080.71 24.3363 1082.02 26.6815 1084.56 28.2835L1085.62 26.5919C1083.66 25.3512 1082.71 23.6404 1082.71 21.3537H1080.71ZM1084.57 28.2929C1087.1 29.8247 1090.93 30.5177 1095.9 30.5177V28.5177C1091.03 28.5177 1087.66 27.8241 1085.61 26.5825L1084.57 28.2929ZM1095.9 30.5177C1100.1 30.5177 1103.6 29.9902 1106.36 28.8862L1105.62 27.0292C1103.18 28.0052 1099.96 28.5177 1095.9 28.5177V30.5177ZM1106.36 28.8879C1109.17 27.778 1111.36 26.0373 1112.87 23.6577L1111.18 22.5857C1109.92 24.5741 1108.08 26.0574 1105.63 27.0275L1106.36 28.8879ZM1111.83 24.1021L1123.22 26.3901L1123.61 24.4293L1112.22 22.1413L1111.83 24.1021ZM1122.53 24.9457C1121.07 27.7346 1119.15 30.0291 1116.77 31.843L1117.99 33.4324C1120.61 31.433 1122.71 28.9088 1124.3 25.8737L1122.53 24.9457ZM1116.77 31.8472C1114.44 33.6521 1111.45 35.0401 1107.77 35.9851L1108.27 37.9223C1112.15 36.926 1115.4 35.4367 1117.99 33.4283L1116.77 31.8472ZM1107.78 35.983C1104.1 36.8937 1099.6 37.3577 1094.24 37.3577V39.3577C1099.7 39.3577 1104.38 38.8857 1108.26 37.9244L1107.78 35.983ZM1094.24 37.3577C1086.39 37.3577 1080.53 35.9999 1076.53 33.4103L1075.45 35.0891C1079.9 37.9768 1086.21 39.3577 1094.24 39.3577V37.3577ZM1076.54 33.4124C1072.62 30.8591 1070.7 27.292 1070.7 22.6017H1068.7C1068.7 27.9647 1070.96 32.163 1075.44 35.087L1076.54 33.4124ZM1141.16 37.6817L1140.2 37.4222L1139.86 38.6817H1141.16V37.6817ZM1144.91 23.7457L1145.87 24.0052L1145.99 23.5567L1145.73 23.1753L1144.91 23.7457ZM1129.31 1.2817V0.281699H1127.4L1128.49 1.85209L1129.31 1.2817ZM1142.93 1.2817L1143.76 0.715567L1143.46 0.281699H1142.93V1.2817ZM1152.4 15.0617L1151.57 15.6278L1152.2 16.5368L1153.04 15.8269L1152.4 15.0617ZM1168.78 1.2817V0.281699H1168.41L1168.13 0.516473L1168.78 1.2817ZM1183.8 1.2817L1184.45 2.04601L1186.54 0.281699H1183.8V1.2817ZM1156.19 24.5777L1155.55 23.8134L1155.31 24.0151L1155.23 24.3172L1156.19 24.5777ZM1152.66 37.6817V38.6817H1153.42L1153.62 37.9422L1152.66 37.6817ZM1142.13 37.9412L1145.87 24.0052L1143.94 23.4862L1140.2 37.4222L1142.13 37.9412ZM1145.73 23.1753L1130.13 0.711304L1128.49 1.85209L1144.09 24.3161L1145.73 23.1753ZM1129.31 2.2817L1142.93 2.2817V0.281699L1129.31 0.281699V2.2817ZM1142.11 1.84783L1151.57 15.6278L1153.22 14.4956L1143.76 0.715567L1142.11 1.84783ZM1153.04 15.8269L1169.42 2.04693L1168.13 0.516473L1151.75 14.2965L1153.04 15.8269ZM1168.78 2.2817L1183.8 2.2817V0.281699L1168.78 0.281699V2.2817ZM1183.16 0.517385L1155.55 23.8134L1156.84 25.342L1184.45 2.04601L1183.16 0.517385ZM1155.23 24.3172L1151.69 37.4212L1153.62 37.9422L1157.16 24.8382L1155.23 24.3172ZM1152.66 36.6817H1141.16V38.6817H1152.66V36.6817ZM1194.99 37.6817L1194.02 37.4223L1193.68 38.6817H1194.99V37.6817ZM1204.76 1.2817V0.281699H1204L1203.8 1.02232L1204.76 1.2817ZM1250.57 1.2817L1251.54 1.53759L1251.87 0.281699H1250.57V1.2817ZM1248.23 10.1217V11.1217H1249L1249.2 10.3776L1248.23 10.1217ZM1213.86 10.1217V9.1217H1213.1L1212.9 9.86224L1213.86 10.1217ZM1211.99 17.0897L1211.03 16.8302L1210.69 18.0897H1211.99V17.0897ZM1242.72 17.0897L1243.69 17.347L1244.02 16.0897H1242.72V17.0897ZM1240.38 25.8777V26.8777H1241.15L1241.35 26.135L1240.38 25.8777ZM1209.65 25.8777V24.8777H1208.88L1208.69 25.6182L1209.65 25.8777ZM1206.48 37.6817V38.6817H1207.25L1207.44 37.9412L1206.48 37.6817ZM1195.95 37.9411L1205.73 1.54108L1203.8 1.02232L1194.02 37.4223L1195.95 37.9411ZM1204.76 2.2817L1250.57 2.2817V0.281699L1204.76 0.281699V2.2817ZM1249.61 1.02581L1247.27 9.86581L1249.2 10.3776L1251.54 1.53759L1249.61 1.02581ZM1248.23 9.1217L1213.86 9.1217V11.1217L1248.23 11.1217V9.1217ZM1212.9 9.86224L1211.03 16.8302L1212.96 17.3492L1214.83 10.3812L1212.9 9.86224ZM1211.99 18.0897L1242.72 18.0897V16.0897L1211.99 16.0897V18.0897ZM1241.76 16.8324L1239.42 25.6204L1241.35 26.135L1243.69 17.347L1241.76 16.8324ZM1240.38 24.8777H1209.65V26.8777H1240.38V24.8777ZM1208.69 25.6182L1205.51 37.4222L1207.44 37.9412L1210.62 26.1372L1208.69 25.6182ZM1206.48 36.6817H1194.99V38.6817H1206.48V36.6817ZM1303.32 18.9097L1302.35 18.6504L1302.35 18.6523L1303.32 18.9097ZM1293.28 33.8337L1293.81 34.6831L1293.81 34.6803L1293.28 33.8337ZM1259.79 35.8097L1259.36 36.7094L1259.79 35.8097ZM1252.72 28.7897L1251.79 29.1574L1251.8 29.1667L1252.72 28.7897ZM1252.51 18.5457L1253.48 18.8066L1253.48 18.8046L1252.51 18.5457ZM1257.14 1.2817V0.281699H1256.38L1256.18 1.02277L1257.14 1.2817ZM1268.63 1.2817L1269.6 1.53881L1269.94 0.281699H1268.63V1.2817ZM1264.11 18.2857L1265.08 18.5466L1265.08 18.5428L1264.11 18.2857ZM1265.57 26.8137L1264.89 27.5519L1264.9 27.558L1264.91 27.5639L1265.57 26.8137ZM1285.9 26.9177L1286.4 27.7822L1286.41 27.7778L1285.9 26.9177ZM1291.93 18.5457L1292.9 18.8088L1292.9 18.8046L1291.93 18.5457ZM1296.56 1.2817V0.281699H1295.79L1295.59 1.02277L1296.56 1.2817ZM1308.05 1.2817L1309.02 1.54096L1309.35 0.281699H1308.05V1.2817ZM1302.35 18.6523C1300.56 25.3695 1297.34 30.1019 1292.75 32.9871L1293.81 34.6803C1298.93 31.4642 1302.4 26.2473 1304.28 19.1671L1302.35 18.6523ZM1292.75 32.9843C1288.11 35.8681 1281.8 37.3577 1273.73 37.3577V39.3577C1282.02 39.3577 1288.74 37.8313 1293.81 34.6831L1292.75 32.9843ZM1273.73 37.3577C1268.02 37.3577 1263.55 36.5184 1260.23 34.91L1259.36 36.7094C1263.05 38.4983 1267.86 39.3577 1273.73 39.3577V37.3577ZM1260.23 34.91C1256.9 33.2954 1254.75 31.1196 1253.65 28.4127L1251.8 29.1667C1253.12 32.4225 1255.68 34.9266 1259.36 36.7094L1260.23 34.91ZM1253.65 28.422C1252.57 25.6854 1252.48 22.4981 1253.48 18.8066L1251.55 18.2848C1250.47 22.2893 1250.52 25.9314 1251.79 29.1574L1253.65 28.422ZM1253.48 18.8046L1258.11 1.54063L1256.18 1.02277L1251.55 18.2868L1253.48 18.8046ZM1257.14 2.2817H1268.63V0.281699H1257.14V2.2817ZM1267.67 1.02459L1263.14 18.0286L1265.08 18.5428L1269.6 1.53881L1267.67 1.02459ZM1263.15 18.0248C1262.06 22.0463 1262.49 25.3535 1264.89 27.5519L1266.24 26.0755C1264.63 24.5993 1264.08 22.2211 1265.08 18.5466L1263.15 18.0248ZM1264.91 27.5639C1267.21 29.597 1270.65 30.5177 1275.03 30.5177V28.5177C1270.88 28.5177 1268.01 27.6357 1266.23 26.0635L1264.91 27.5639ZM1275.03 30.5177C1279.43 30.5177 1283.23 29.623 1286.4 27.7822L1285.4 26.0532C1282.6 27.6791 1279.16 28.5177 1275.03 28.5177V30.5177ZM1286.41 27.7778C1289.64 25.8586 1291.8 22.8346 1292.9 18.8088L1290.97 18.2826C1289.98 21.8835 1288.11 24.4408 1285.39 26.0576L1286.41 27.7778ZM1292.9 18.8046L1297.52 1.54063L1295.59 1.02277L1290.96 18.2868L1292.9 18.8046ZM1296.56 2.2817L1308.05 2.2817V0.281699L1296.56 0.281699V2.2817ZM1307.08 1.02244L1302.35 18.6504L1304.28 19.169L1309.02 1.54096L1307.08 1.02244ZM1308.23 37.6817L1307.26 37.4223L1306.93 38.6817H1308.23V37.6817ZM1318.01 1.2817V0.281699H1317.24L1317.04 1.02232L1318.01 1.2817ZM1329.5 1.2817L1330.46 1.5405L1330.8 0.281699H1329.5V1.2817ZM1322.11 28.8417L1321.15 28.5829L1320.81 29.8417H1322.11V28.8417ZM1351.08 28.8417L1352.04 29.1029L1352.38 27.8417H1351.08V28.8417ZM1348.69 37.6817V38.6817H1349.45L1349.65 37.9429L1348.69 37.6817ZM1309.19 37.9411L1318.97 1.54108L1317.04 1.02232L1307.26 37.4223L1309.19 37.9411ZM1318.01 2.2817L1329.5 2.2817V0.281699L1318.01 0.281699V2.2817ZM1328.53 1.0229L1321.15 28.5829L1323.08 29.1005L1330.46 1.5405L1328.53 1.0229ZM1322.11 29.8417H1351.08V27.8417H1322.11V29.8417ZM1350.11 28.5805L1347.72 37.4205L1349.65 37.9429L1352.04 29.1029L1350.11 28.5805ZM1348.69 36.6817L1308.23 36.6817V38.6817L1348.69 38.6817V36.6817ZM1356.42 37.6817L1355.45 37.4223L1355.12 38.6817H1356.42V37.6817ZM1366.2 1.2817V0.281699H1365.43L1365.23 1.02232L1366.2 1.2817ZM1377.69 1.2817L1378.65 1.5405L1378.99 0.281699H1377.69V1.2817ZM1370.3 28.8417L1369.34 28.5829L1369 29.8417H1370.3V28.8417ZM1399.27 28.8417L1400.23 29.1029L1400.58 27.8417H1399.27V28.8417ZM1396.88 37.6817V38.6817H1397.64L1397.84 37.9429L1396.88 37.6817ZM1357.39 37.9411L1367.16 1.54108L1365.23 1.02232L1355.45 37.4223L1357.39 37.9411ZM1366.2 2.2817L1377.69 2.2817V0.281699L1366.2 0.281699V2.2817ZM1376.72 1.0229L1369.34 28.5829L1371.27 29.1005L1378.65 1.5405L1376.72 1.0229ZM1370.3 29.8417L1399.27 29.8417V27.8417L1370.3 27.8417V29.8417ZM1398.3 28.5805L1395.91 37.4205L1397.84 37.9429L1400.23 29.1029L1398.3 28.5805ZM1396.88 36.6817L1356.42 36.6817V38.6817L1396.88 38.6817V36.6817ZM1404.4 26.6057L1403.44 26.3459L1403.1 27.6057H1404.4V26.6057ZM1406.8 17.7137V16.7137H1406.03L1405.83 17.4539L1406.8 17.7137ZM1434.2 17.7137L1435.17 17.9735L1435.5 16.7137H1434.2V17.7137ZM1431.81 26.6057V27.6057H1432.57L1432.77 26.8655L1431.81 26.6057ZM1405.37 26.8655L1407.76 17.9735L1405.83 17.4539L1403.44 26.3459L1405.37 26.8655ZM1406.8 18.7137L1434.2 18.7137V16.7137L1406.8 16.7137V18.7137ZM1433.23 17.4539L1430.84 26.3459L1432.77 26.8655L1435.17 17.9735L1433.23 17.4539ZM1431.81 25.6057H1404.4V27.6057H1431.81V25.6057ZM1440.55 13.9177L1441.43 14.4053L1441.43 14.4005L1440.55 13.9177ZM1447 6.8977L1446.43 6.07658L1446.43 6.0799L1447 6.8977ZM1488.65 3.8297L1488.19 4.71656L1488.19 4.71813L1488.65 3.8297ZM1495.26 13.2417L1495.45 14.2221L1496.31 14.0509L1496.26 13.183L1495.26 13.2417ZM1483.35 15.6337L1482.35 15.7002L1482.43 16.8389L1483.55 16.6141L1483.35 15.6337ZM1479.92 11.0057L1479.48 11.9059L1479.49 11.9115L1479.92 11.0057ZM1458.81 11.1617L1459.16 12.0962L1459.17 12.0925L1458.81 11.1617ZM1452.36 15.5817L1451.56 14.9793L1451.56 14.9817L1452.36 15.5817ZM1453.71 27.4377L1453.18 28.2835L1453.18 28.2883L1453.19 28.2929L1453.71 27.4377ZM1474.61 27.9577L1474.25 27.0275L1474.24 27.0292L1474.61 27.9577ZM1480.65 23.1217L1480.84 22.1413L1480.17 22.006L1479.8 22.5857L1480.65 23.1217ZM1492.03 25.4097L1492.92 25.8737L1493.54 24.6921L1492.23 24.4293L1492.03 25.4097ZM1486 32.6377L1485.39 31.843L1485.39 31.8472L1486 32.6377ZM1476.64 36.9537L1476.88 37.9244L1476.89 37.9223L1476.64 36.9537ZM1444.61 34.2497L1444.06 35.087L1444.07 35.0891L1444.61 34.2497ZM1439.32 22.6017C1439.32 19.6487 1440.02 16.9224 1441.43 14.4053L1439.68 13.4301C1438.1 16.2517 1437.32 19.3147 1437.32 22.6017L1439.32 22.6017ZM1441.43 14.4005C1442.84 11.8438 1444.88 9.61399 1447.58 7.71551L1446.43 6.0799C1443.51 8.13342 1441.25 10.5836 1439.68 13.4349L1441.43 14.4005ZM1447.57 7.71881C1450.31 5.81901 1453.63 4.31894 1457.56 3.23369L1457.03 1.30571C1452.92 2.43912 1449.38 4.02439 1446.43 6.07659L1447.57 7.71881ZM1457.56 3.23369C1461.48 2.15285 1465.95 1.6057 1470.97 1.6057V-0.394301C1465.81 -0.394301 1461.16 0.167886 1457.03 1.30571L1457.56 3.23369ZM1470.97 1.6057C1478.57 1.6057 1484.27 2.67482 1488.19 4.71655L1489.12 2.94285C1484.78 0.68591 1478.7 -0.394301 1470.97 -0.394301V1.6057ZM1488.19 4.71813C1492.09 6.73122 1494.04 9.58012 1494.26 13.3004L1496.26 13.183C1495.99 8.65261 1493.54 5.22684 1489.11 2.94127L1488.19 4.71813ZM1495.06 12.2613L1483.15 14.6533L1483.55 16.6141L1495.45 14.2221L1495.06 12.2613ZM1484.35 15.5672C1484.18 13.0667 1482.77 11.2337 1480.34 10.0999L1479.49 11.9115C1481.37 12.7884 1482.24 14.0407 1482.35 15.7002L1484.35 15.5672ZM1480.35 10.1055C1478 8.96472 1474.5 8.4457 1469.99 8.4457V10.4457C1474.42 10.4457 1477.54 10.9667 1479.48 11.9059L1480.35 10.1055ZM1469.99 8.4457C1465.37 8.4457 1461.51 9.02548 1458.44 10.2309L1459.17 12.0925C1461.93 11.0099 1465.52 10.4457 1469.99 10.4457V8.4457ZM1458.45 10.2272C1455.42 11.3805 1453.09 12.9477 1451.56 14.9793L1453.16 16.1841C1454.4 14.5411 1456.37 13.1615 1459.16 12.0962L1458.45 10.2272ZM1451.56 14.9817C1450.09 16.9389 1449.33 19.0699 1449.33 21.3537H1451.33C1451.33 19.5469 1451.92 17.8298 1453.16 16.1817L1451.56 14.9817ZM1449.33 21.3537C1449.33 24.3363 1450.64 26.6815 1453.18 28.2835L1454.24 26.5919C1452.28 25.3512 1451.33 23.6404 1451.33 21.3537H1449.33ZM1453.19 28.2929C1455.72 29.8247 1459.55 30.5177 1464.53 30.5177V28.5177C1459.66 28.5177 1456.28 27.8241 1454.23 26.5825L1453.19 28.2929ZM1464.53 30.5177C1468.72 30.5177 1472.23 29.9902 1474.99 28.8862L1474.24 27.0292C1471.8 28.0052 1468.58 28.5177 1464.53 28.5177V30.5177ZM1474.98 28.8879C1477.79 27.778 1479.98 26.0373 1481.49 23.6577L1479.8 22.5857C1478.54 24.5741 1476.7 26.0574 1474.25 27.0275L1474.98 28.8879ZM1480.45 24.1021L1491.84 26.3901L1492.23 24.4293L1480.84 22.1413L1480.45 24.1021ZM1491.15 24.9457C1489.69 27.7346 1487.77 30.0291 1485.39 31.843L1486.61 33.4324C1489.23 31.433 1491.33 28.9088 1492.92 25.8737L1491.15 24.9457ZM1485.39 31.8472C1483.06 33.6521 1480.07 35.0401 1476.39 35.9851L1476.89 37.9223C1480.77 36.926 1484.02 35.4367 1486.61 33.4283L1485.39 31.8472ZM1476.4 35.983C1472.73 36.8937 1468.22 37.3577 1462.86 37.3577V39.3577C1468.32 39.3577 1473 38.8857 1476.88 37.9244L1476.4 35.983ZM1462.86 37.3577C1455.01 37.3577 1449.15 35.9999 1445.15 33.4103L1444.07 35.0891C1448.53 37.9768 1454.83 39.3577 1462.86 39.3577V37.3577ZM1445.16 33.4124C1441.25 30.8591 1439.32 27.292 1439.32 22.6017L1437.32 22.6017C1437.32 27.9647 1439.58 32.163 1444.06 35.087L1445.16 33.4124ZM1509.79 37.6817L1508.82 37.4222L1508.48 38.6817H1509.79V37.6817ZM1513.53 23.7457L1514.49 24.0052L1514.62 23.5567L1514.35 23.1753L1513.53 23.7457ZM1497.93 1.2817V0.281699H1496.02L1497.11 1.85209L1497.93 1.2817ZM1511.55 1.2817L1512.38 0.715567L1512.08 0.281699H1511.55V1.2817ZM1521.02 15.0617L1520.19 15.6278L1520.82 16.5368L1521.66 15.8269L1521.02 15.0617ZM1537.4 1.2817V0.281699H1537.03L1536.75 0.516473L1537.4 1.2817ZM1552.43 1.2817L1553.07 2.04601L1555.16 0.281699H1552.43V1.2817ZM1524.81 24.5777L1524.17 23.8134L1523.93 24.0151L1523.85 24.3172L1524.81 24.5777ZM1521.28 37.6817V38.6817H1522.04L1522.24 37.9422L1521.28 37.6817ZM1510.75 37.9412L1514.49 24.0052L1512.56 23.4862L1508.82 37.4222L1510.75 37.9412ZM1514.35 23.1753L1498.75 0.711304L1497.11 1.85209L1512.71 24.3161L1514.35 23.1753ZM1497.93 2.2817L1511.55 2.2817V0.281699L1497.93 0.281699V2.2817ZM1510.73 1.84783L1520.19 15.6278L1521.84 14.4956L1512.38 0.715567L1510.73 1.84783ZM1521.66 15.8269L1538.04 2.04693L1536.75 0.516473L1520.37 14.2965L1521.66 15.8269ZM1537.4 2.2817L1552.43 2.2817V0.281699L1537.4 0.281699V2.2817ZM1551.78 0.517385L1524.17 23.8134L1525.46 25.342L1553.07 2.04601L1551.78 0.517385ZM1523.85 24.3172L1520.31 37.4212L1522.24 37.9422L1525.78 24.8382L1523.85 24.3172ZM1521.28 36.6817H1509.79V38.6817H1521.28V36.6817ZM1550.75 13.9177L1551.62 14.4053L1551.62 14.4005L1550.75 13.9177ZM1557.2 6.8977L1556.63 6.07658L1556.62 6.0799L1557.2 6.8977ZM1598.85 3.8297L1598.39 4.71656L1598.39 4.71813L1598.85 3.8297ZM1605.45 13.2417L1605.65 14.2221L1606.5 14.0509L1606.45 13.183L1605.45 13.2417ZM1593.55 15.6337L1592.55 15.7002L1592.62 16.8389L1593.74 16.6141L1593.55 15.6337ZM1590.11 11.0057L1589.68 11.9059L1589.69 11.9115L1590.11 11.0057ZM1569 11.1617L1569.36 12.0962L1569.37 12.0925L1569 11.1617ZM1562.55 15.5817L1561.75 14.9793L1561.75 14.9817L1562.55 15.5817ZM1563.91 27.4377L1563.37 28.2835L1563.38 28.2883L1563.39 28.2929L1563.91 27.4377ZM1584.81 27.9577L1584.44 27.0275L1584.44 27.0292L1584.81 27.9577ZM1590.84 23.1217L1591.04 22.1413L1590.36 22.006L1590 22.5857L1590.84 23.1217ZM1602.23 25.4097L1603.11 25.8737L1603.73 24.6921L1602.43 24.4293L1602.23 25.4097ZM1596.2 32.6377L1595.59 31.843L1595.58 31.8472L1596.2 32.6377ZM1586.84 36.9537L1587.08 37.9244L1587.09 37.9223L1586.84 36.9537ZM1554.81 34.2497L1554.26 35.087L1554.26 35.0891L1554.81 34.2497ZM1549.51 22.6017C1549.51 19.6487 1550.22 16.9224 1551.62 14.4053L1549.88 13.4301C1548.3 16.2517 1547.51 19.3147 1547.51 22.6017H1549.51ZM1551.62 14.4005C1553.03 11.8438 1555.07 9.61399 1557.77 7.71551L1556.62 6.0799C1553.7 8.13342 1551.45 10.5836 1549.87 13.4349L1551.62 14.4005ZM1557.77 7.71881C1560.5 5.81901 1563.82 4.31894 1567.76 3.23369L1567.23 1.30571C1563.12 2.43912 1559.58 4.02439 1556.63 6.07659L1557.77 7.71881ZM1567.76 3.23369C1571.68 2.15285 1576.14 1.6057 1581.17 1.6057V-0.394301C1576 -0.394301 1571.35 0.167886 1567.23 1.30571L1567.76 3.23369ZM1581.17 1.6057C1588.76 1.6057 1594.47 2.67482 1598.39 4.71655L1599.31 2.94285C1594.98 0.68591 1588.9 -0.394301 1581.17 -0.394301V1.6057ZM1598.39 4.71813C1602.29 6.73122 1604.24 9.58012 1604.45 13.3004L1606.45 13.183C1606.18 8.65261 1603.73 5.22684 1599.31 2.94127L1598.39 4.71813ZM1605.26 12.2613L1593.35 14.6533L1593.74 16.6141L1605.65 14.2221L1605.26 12.2613ZM1594.54 15.5672C1594.38 13.0667 1592.96 11.2337 1590.54 10.0999L1589.69 11.9115C1591.56 12.7884 1592.44 14.0407 1592.55 15.7002L1594.54 15.5672ZM1590.55 10.1055C1588.19 8.96472 1584.69 8.4457 1580.18 8.4457V10.4457C1584.61 10.4457 1587.74 10.9667 1589.68 11.9059L1590.55 10.1055ZM1580.18 8.4457C1575.57 8.4457 1571.7 9.02548 1568.64 10.2309L1569.37 12.0925C1572.12 11.0099 1575.71 10.4457 1580.18 10.4457V8.4457ZM1568.65 10.2272C1565.62 11.3805 1563.29 12.9477 1561.75 14.9793L1563.35 16.1841C1564.59 14.5411 1566.56 13.1615 1569.36 12.0962L1568.65 10.2272ZM1561.75 14.9817C1560.29 16.9389 1559.53 19.0699 1559.53 21.3537H1561.53C1561.53 19.5469 1562.12 17.8298 1563.35 16.1817L1561.75 14.9817ZM1559.53 21.3537C1559.53 24.3363 1560.83 26.6815 1563.37 28.2835L1564.44 26.5919C1562.47 25.3512 1561.53 23.6404 1561.53 21.3537H1559.53ZM1563.39 28.2929C1565.91 29.8247 1569.75 30.5177 1574.72 30.5177V28.5177C1569.85 28.5177 1566.47 27.8241 1564.42 26.5825L1563.39 28.2929ZM1574.72 30.5177C1578.92 30.5177 1582.42 29.9902 1585.18 28.8862L1584.44 27.0292C1582 28.0052 1578.77 28.5177 1574.72 28.5177V30.5177ZM1585.18 28.8879C1587.99 27.778 1590.17 26.0373 1591.69 23.6577L1590 22.5857C1588.73 24.5741 1586.9 26.0574 1584.44 27.0275L1585.18 28.8879ZM1590.64 24.1021L1602.03 26.3901L1602.43 24.4293L1591.04 22.1413L1590.64 24.1021ZM1601.34 24.9457C1599.88 27.7346 1597.96 30.0291 1595.59 31.843L1596.8 33.4324C1599.42 31.433 1601.53 28.9088 1603.11 25.8737L1601.34 24.9457ZM1595.58 31.8472C1593.25 33.6521 1590.27 35.0401 1586.59 35.9851L1587.09 37.9223C1590.96 36.926 1594.22 35.4367 1596.81 33.4283L1595.58 31.8472ZM1586.6 35.983C1582.92 36.8937 1578.41 37.3577 1573.06 37.3577V39.3577C1578.52 39.3577 1583.2 38.8857 1587.08 37.9244L1586.6 35.983ZM1573.06 37.3577C1565.21 37.3577 1559.35 35.9999 1555.35 33.4103L1554.26 35.0891C1558.72 37.9768 1565.03 39.3577 1573.06 39.3577V37.3577ZM1555.35 33.4124C1551.44 30.8591 1549.51 27.292 1549.51 22.6017H1547.51C1547.51 27.9647 1549.78 32.163 1554.26 35.087L1555.35 33.4124ZM1606.82 37.6817L1605.86 37.4223L1605.52 38.6817H1606.82V37.6817ZM1616.6 1.2817V0.281699H1615.83L1615.63 1.02232L1616.6 1.2817ZM1628.09 1.2817L1629.06 1.5405L1629.39 0.281699H1628.09V1.2817ZM1620.71 28.8417L1619.74 28.5829L1619.4 29.8417H1620.71V28.8417ZM1649.67 28.8417L1650.64 29.1029L1650.98 27.8417H1649.67V28.8417ZM1647.28 37.6817V38.6817H1648.04L1648.24 37.9429L1647.28 37.6817ZM1607.79 37.9411L1617.56 1.54108L1615.63 1.02232L1605.86 37.4223L1607.79 37.9411ZM1616.6 2.2817L1628.09 2.2817V0.281699L1616.6 0.281699V2.2817ZM1627.12 1.0229L1619.74 28.5829L1621.67 29.1005L1629.06 1.5405L1627.12 1.0229ZM1620.71 29.8417L1649.67 29.8417V27.8417L1620.71 27.8417V29.8417ZM1648.71 28.5805L1646.31 37.4205L1648.24 37.9429L1650.64 29.1029L1648.71 28.5805ZM1647.28 36.6817L1606.82 36.6817V38.6817L1647.28 38.6817V36.6817ZM1655.01 37.6817L1654.05 37.4223L1653.71 38.6817H1655.01V37.6817ZM1664.79 1.2817V0.281699H1664.02L1663.82 1.02232L1664.79 1.2817ZM1710.6 1.2817L1711.57 1.54013L1711.91 0.281699H1710.6V1.2817ZM1708.42 9.4457V10.4457H1709.19L1709.38 9.70413L1708.42 9.4457ZM1673.73 9.4457V8.4457H1672.97L1672.77 9.18637L1673.73 9.4457ZM1672.23 15.0617L1671.26 14.8024L1670.92 16.0617H1672.23V15.0617ZM1703.32 15.0617L1704.29 15.3217L1704.63 14.0617H1703.32V15.0617ZM1701.14 23.1737V24.1737H1701.9L1702.1 23.4337L1701.14 23.1737ZM1670.09 23.1737V22.1737H1669.33L1669.13 22.9126L1670.09 23.1737ZM1668.38 29.5177L1667.41 29.2566L1667.07 30.5177H1668.38V29.5177ZM1703.43 29.5177L1704.39 29.7761L1704.73 28.5177H1703.43V29.5177ZM1701.24 37.6817V38.6817H1702.01L1702.21 37.9401L1701.24 37.6817ZM1655.98 37.9411L1665.76 1.54108L1663.82 1.02232L1654.05 37.4223L1655.98 37.9411ZM1664.79 2.2817L1710.6 2.2817V0.281699L1664.79 0.281699V2.2817ZM1709.64 1.02327L1707.45 9.18727L1709.38 9.70413L1711.57 1.54013L1709.64 1.02327ZM1708.42 8.4457L1673.73 8.4457V10.4457L1708.42 10.4457V8.4457ZM1672.77 9.18637L1671.26 14.8024L1673.19 15.321L1674.7 9.70503L1672.77 9.18637ZM1672.23 16.0617L1703.32 16.0617V14.0617L1672.23 14.0617V16.0617ZM1702.36 14.8017L1700.17 22.9137L1702.1 23.4337L1704.29 15.3217L1702.36 14.8017ZM1701.14 22.1737L1670.09 22.1737V24.1737L1701.14 24.1737V22.1737ZM1669.13 22.9126L1667.41 29.2566L1669.34 29.7788L1671.06 23.4348L1669.13 22.9126ZM1668.38 30.5177L1703.43 30.5177V28.5177L1668.38 28.5177V30.5177ZM1702.46 29.2593L1700.28 37.4233L1702.21 37.9401L1704.39 29.7761L1702.46 29.2593ZM1701.24 36.6817L1655.01 36.6817V38.6817L1701.24 38.6817V36.6817ZM1725.65 37.6817L1724.69 37.4223L1724.35 38.6817H1725.65V37.6817ZM1735.43 1.2817V0.281699H1734.66L1734.46 1.02232L1735.43 1.2817ZM1781.24 1.2817L1782.21 1.54013L1782.54 0.281699L1781.24 0.281699V1.2817ZM1779.06 9.4457V10.4457H1779.82L1780.02 9.70413L1779.06 9.4457ZM1744.37 9.4457V8.4457H1743.6L1743.41 9.18637L1744.37 9.4457ZM1742.86 15.0617L1741.9 14.8024L1741.56 16.0617L1742.86 16.0617V15.0617ZM1773.96 15.0617L1774.92 15.3217L1775.26 14.0617L1773.96 14.0617V15.0617ZM1771.78 23.1737V24.1737H1772.54L1772.74 23.4337L1771.78 23.1737ZM1740.73 23.1737V22.1737H1739.97L1739.77 22.9126L1740.73 23.1737ZM1739.02 29.5177L1738.05 29.2566L1737.71 30.5177H1739.02V29.5177ZM1774.06 29.5177L1775.03 29.7761L1775.37 28.5177H1774.06V29.5177ZM1771.88 37.6817V38.6817H1772.65L1772.85 37.9401L1771.88 37.6817ZM1726.62 37.9411L1736.39 1.54108L1734.46 1.02232L1724.69 37.4223L1726.62 37.9411ZM1735.43 2.2817L1781.24 2.2817V0.281699L1735.43 0.281699V2.2817ZM1780.27 1.02327L1778.09 9.18727L1780.02 9.70413L1782.21 1.54013L1780.27 1.02327ZM1779.06 8.4457L1744.37 8.4457V10.4457L1779.06 10.4457V8.4457ZM1743.41 9.18637L1741.9 14.8024L1743.83 15.321L1745.34 9.70503L1743.41 9.18637ZM1742.86 16.0617H1773.96V14.0617H1742.86V16.0617ZM1772.99 14.8017L1770.81 22.9137L1772.74 23.4337L1774.92 15.3217L1772.99 14.8017ZM1771.78 22.1737L1740.73 22.1737V24.1737L1771.78 24.1737V22.1737ZM1739.77 22.9126L1738.05 29.2566L1739.98 29.7788L1741.7 23.4348L1739.77 22.9126ZM1739.02 30.5177L1774.06 30.5177V28.5177L1739.02 28.5177V30.5177ZM1773.1 29.2593L1770.91 37.4233L1772.85 37.9401L1775.03 29.7761L1773.1 29.2593ZM1771.88 36.6817L1725.65 36.6817V38.6817L1771.88 38.6817V36.6817ZM1796.78 1.2817L1797.72 0.945852L1797.48 0.281699H1796.78V1.2817ZM1805.83 26.6577L1804.88 26.9935L1805.45 28.5757L1806.57 27.3257L1805.83 26.6577ZM1828.6 1.2817V0.281699H1828.16L1827.86 0.613746L1828.6 1.2817ZM1842.12 1.2817L1842.87 1.94949L1844.36 0.281699H1842.12V1.2817ZM1809.47 37.6817V38.6817H1809.91L1810.21 38.3495L1809.47 37.6817ZM1797.66 37.6817L1796.72 38.0216L1796.96 38.6817H1797.66V37.6817ZM1784.51 1.2817V0.281699H1783.08L1783.57 1.62161L1784.51 1.2817ZM1795.84 1.61755L1804.88 26.9935L1806.77 26.3219L1797.72 0.945852L1795.84 1.61755ZM1806.57 27.3257L1829.35 1.94965L1827.86 0.613746L1805.08 25.9897L1806.57 27.3257ZM1828.6 2.2817L1842.12 2.2817V0.281699L1828.6 0.281699V2.2817ZM1841.38 0.613911L1808.72 37.0139L1810.21 38.3495L1842.87 1.94949L1841.38 0.613911ZM1809.47 36.6817H1797.66V38.6817H1809.47V36.6817ZM1798.6 37.3418L1785.45 0.941791L1783.57 1.62161L1796.72 38.0216L1798.6 37.3418ZM1784.51 2.2817H1796.78V0.281699H1784.51V2.2817ZM1838.03 37.6817L1837.06 37.4223L1836.73 38.6817H1838.03V37.6817ZM1847.81 1.2817V0.281699H1847.04L1846.84 1.02232L1847.81 1.2817ZM1893.62 1.2817L1894.58 1.54013L1894.92 0.281699L1893.62 0.281699V1.2817ZM1891.43 9.4457V10.4457H1892.2L1892.4 9.70413L1891.43 9.4457ZM1856.75 9.4457V8.4457H1855.98L1855.78 9.18637L1856.75 9.4457ZM1855.24 15.0617L1854.28 14.8024L1853.94 16.0617H1855.24V15.0617ZM1886.34 15.0617L1887.3 15.3217L1887.64 14.0617H1886.34V15.0617ZM1884.15 23.1737V24.1737H1884.92L1885.12 23.4337L1884.15 23.1737ZM1853.11 23.1737V22.1737H1852.34L1852.14 22.9126L1853.11 23.1737ZM1851.39 29.5177L1850.43 29.2566L1850.09 30.5177H1851.39V29.5177ZM1886.44 29.5177L1887.41 29.7761L1887.74 28.5177H1886.44V29.5177ZM1884.26 37.6817V38.6817H1885.03L1885.22 37.9401L1884.26 37.6817ZM1839 37.9411L1848.77 1.54108L1846.84 1.02232L1837.06 37.4223L1839 37.9411ZM1847.81 2.2817L1893.62 2.2817V0.281699L1847.81 0.281699V2.2817ZM1892.65 1.02327L1890.47 9.18727L1892.4 9.70413L1894.58 1.54013L1892.65 1.02327ZM1891.43 8.4457L1856.75 8.4457V10.4457L1891.43 10.4457V8.4457ZM1855.78 9.18637L1854.28 14.8024L1856.21 15.321L1857.72 9.70503L1855.78 9.18637ZM1855.24 16.0617L1886.34 16.0617V14.0617L1855.24 14.0617V16.0617ZM1885.37 14.8017L1883.19 22.9137L1885.12 23.4337L1887.3 15.3217L1885.37 14.8017ZM1884.15 22.1737H1853.11V24.1737H1884.15V22.1737ZM1852.14 22.9126L1850.43 29.2566L1852.36 29.7788L1854.08 23.4348L1852.14 22.9126ZM1851.39 30.5177L1886.44 30.5177V28.5177L1851.39 28.5177V30.5177ZM1885.48 29.2593L1883.29 37.4233L1885.22 37.9401L1887.41 29.7761L1885.48 29.2593ZM1884.26 36.6817H1838.03V38.6817H1884.26V36.6817ZM1892.57 37.6817L1891.6 37.4223L1891.27 38.6817H1892.57V37.6817ZM1902.34 1.2817V0.281699H1901.58L1901.38 1.02232L1902.34 1.2817ZM1913.47 1.2817L1914.22 0.616107L1913.92 0.281699H1913.47V1.2817ZM1936.2 26.7617L1935.45 27.4273L1936.68 28.8106L1937.16 27.02L1936.2 26.7617ZM1943.01 1.2817V0.281699H1942.24L1942.04 1.02342L1943.01 1.2817ZM1953.83 1.2817L1954.79 1.53979L1955.13 0.281699H1953.83V1.2817ZM1944.1 37.6817V38.6817H1944.87L1945.07 37.9398L1944.1 37.6817ZM1932.97 37.6817L1932.23 38.3473L1932.52 38.6817H1932.97V37.6817ZM1910.25 12.2017L1911 11.5361L1909.76 10.156L1909.28 11.9416L1910.25 12.2017ZM1903.39 37.6817V38.6817H1904.15L1904.35 37.9418L1903.39 37.6817ZM1893.53 37.9411L1903.31 1.54108L1901.38 1.02232L1891.6 37.4223L1893.53 37.9411ZM1902.34 2.2817L1913.47 2.2817V0.281699L1902.34 0.281699V2.2817ZM1912.73 1.94729L1935.45 27.4273L1936.94 26.0961L1914.22 0.616107L1912.73 1.94729ZM1937.16 27.02L1943.98 1.53998L1942.04 1.02342L1935.23 26.5034L1937.16 27.02ZM1943.01 2.2817H1953.83V0.281699H1943.01V2.2817ZM1952.86 1.02361L1943.13 37.4236L1945.07 37.9398L1954.79 1.53979L1952.86 1.02361ZM1944.1 36.6817H1932.97V38.6817H1944.1V36.6817ZM1933.72 37.0161L1911 11.5361L1909.5 12.8673L1932.23 38.3473L1933.72 37.0161ZM1909.28 11.9416L1902.42 37.4216L1904.35 37.9418L1911.21 12.4618L1909.28 11.9416ZM1903.39 36.6817H1892.57V38.6817H1903.39V36.6817ZM1970.52 37.6817L1969.56 37.4229L1969.22 38.6817H1970.52V37.6817ZM1977.91 10.1217L1978.87 10.3805L1979.21 9.1217H1977.91V10.1217ZM1958.46 10.1217L1957.49 9.8605L1957.15 11.1217H1958.46V10.1217ZM1960.85 1.2817V0.281699H1960.09L1959.89 1.0205L1960.85 1.2817ZM2011.24 1.2817L2012.2 1.54289L2012.55 0.281699H2011.24V1.2817ZM2008.85 10.1217V11.1217H2009.61L2009.81 10.3829L2008.85 10.1217ZM1989.4 10.1217V9.1217H1988.63L1988.43 9.8629L1989.4 10.1217ZM1982.02 37.6817V38.6817H1982.78L1982.98 37.9405L1982.02 37.6817ZM1971.49 37.9405L1978.87 10.3805L1976.94 9.8629L1969.56 37.4229L1971.49 37.9405ZM1977.91 9.1217L1958.46 9.1217V11.1217L1977.91 11.1217V9.1217ZM1959.42 10.3829L1961.82 1.54289L1959.89 1.0205L1957.49 9.8605L1959.42 10.3829ZM1960.85 2.2817L2011.24 2.2817V0.281699L1960.85 0.281699V2.2817ZM2010.27 1.0205L2007.88 9.8605L2009.81 10.3829L2012.2 1.54289L2010.27 1.0205ZM2008.85 9.1217L1989.4 9.1217V11.1217L2008.85 11.1217V9.1217ZM1988.43 9.8629L1981.05 37.4229L1982.98 37.9405L1990.37 10.3805L1988.43 9.8629ZM1982.02 36.6817H1970.52V38.6817H1982.02V36.6817ZM2067.55 37.6817L2066.62 38.0377L2066.86 38.6817H2067.55V37.6817ZM2065.06 31.1297L2065.99 30.7737L2065.75 30.1297H2065.06V31.1297ZM2038.59 31.1297V30.1297H2038.15L2037.85 30.4524L2038.59 31.1297ZM2032.56 37.6817V38.6817H2032.99L2033.29 38.359L2032.56 37.6817ZM2019.09 37.6817L2018.36 36.9979L2016.78 38.6817H2019.09V37.6817ZM2053.2 1.2817V0.281699H2052.77L2052.47 0.597897L2053.2 1.2817ZM2065 1.2817L2065.93 0.909166L2065.68 0.281699H2065V1.2817ZM2079.62 37.6817V38.6817H2081.1L2080.54 37.3092L2079.62 37.6817ZM2046.18 22.9137L2045.45 22.2358L2043.9 23.9137H2046.18V22.9137ZM2061.88 22.9137V23.9137H2063.34L2062.82 22.5542L2061.88 22.9137ZM2057.26 10.9017L2058.19 10.5422L2057.61 9.04155L2056.52 10.2238L2057.26 10.9017ZM2068.49 37.3257L2065.99 30.7737L2064.12 31.4857L2066.62 38.0377L2068.49 37.3257ZM2065.06 30.1297H2038.59V32.1297H2065.06V30.1297ZM2037.85 30.4524L2031.82 37.0044L2033.29 38.359L2039.32 31.807L2037.85 30.4524ZM2032.56 36.6817H2019.09V38.6817H2032.56V36.6817ZM2019.82 38.3655L2053.93 1.9655L2052.47 0.597897L2018.36 36.9979L2019.82 38.3655ZM2053.2 2.2817L2065 2.2817V0.281699L2053.2 0.281699V2.2817ZM2064.08 1.65423L2078.69 38.0542L2080.54 37.3092L2065.93 0.909166L2064.08 1.65423ZM2079.62 36.6817L2067.55 36.6817V38.6817L2079.62 38.6817V36.6817ZM2046.18 23.9137H2061.88V21.9137H2046.18V23.9137ZM2062.82 22.5542L2058.19 10.5422L2056.32 11.2612L2060.95 23.2732L2062.82 22.5542ZM2056.52 10.2238L2045.45 22.2358L2046.92 23.5916L2057.99 11.5796L2056.52 10.2238ZM2086.29 13.8657L2085.42 13.3781L2086.29 13.8657ZM2092.74 6.8977L2092.17 6.07658L2092.16 6.0799L2092.74 6.8977ZM2134.39 3.7257L2133.94 4.61862L2134.39 3.7257ZM2140.99 12.8777L2141.19 13.8591L2142.05 13.6896L2141.99 12.8089L2140.99 12.8777ZM2129.03 15.2177L2128.04 15.2889L2128.12 16.4161L2129.23 16.1991L2129.03 15.2177ZM2125.6 10.9017L2125.18 11.8105L2125.19 11.8146L2125.2 11.8185L2125.6 10.9017ZM2104.49 11.1617L2104.85 12.0962L2104.85 12.0925L2104.49 11.1617ZM2098.04 15.5817L2097.24 14.9793L2097.24 14.9817L2098.04 15.5817ZM2099.55 27.4377L2099.03 28.2941L2099.04 28.2985L2099.05 28.3028L2099.55 27.4377ZM2120.87 28.3737L2121.13 29.3387L2120.87 28.3737ZM2127.53 24.7337L2128.24 25.4333L2129.9 23.7337H2127.53V24.7337ZM2111.3 24.7337L2110.34 24.4756L2110 25.7337H2111.3V24.7337ZM2113.33 17.1417V16.1417H2112.56L2112.36 16.8836L2113.33 17.1417ZM2141.72 17.1417L2142.69 17.4009L2143.03 16.1417H2141.72V17.1417ZM2136.21 37.6817V38.6817H2136.98L2137.18 37.9409L2136.21 37.6817ZM2127.37 37.6817L2126.37 37.5814L2126.26 38.6817H2127.37V37.6817ZM2127.99 31.4937L2128.99 31.594L2129.24 29.093L2127.34 30.7373L2127.99 31.4937ZM2118.79 36.5897L2118.48 35.6401L2118.47 35.641L2118.79 36.5897ZM2089.62 34.2497L2089.02 35.0506L2089.03 35.0568L2089.62 34.2497ZM2085.05 22.5497C2085.05 19.5967 2085.76 16.8704 2087.16 14.3533L2085.42 13.3781C2083.84 16.1997 2083.05 19.2627 2083.05 22.5497H2085.05ZM2087.16 14.3533C2088.57 11.8303 2090.61 9.61585 2093.31 7.71551L2092.16 6.0799C2089.25 8.13155 2086.99 10.5625 2085.42 13.3781L2087.16 14.3533ZM2093.31 7.71881C2096.04 5.81901 2099.37 4.31894 2103.3 3.23369L2102.77 1.30571C2098.66 2.43912 2095.12 4.02439 2092.17 6.07659L2093.31 7.71881ZM2103.3 3.23369C2107.22 2.15285 2111.68 1.6057 2116.71 1.6057V-0.394301C2111.54 -0.394301 2106.89 0.167886 2102.77 1.30571L2103.3 3.23369ZM2116.71 1.6057C2124.3 1.6057 2130.02 2.64081 2133.94 4.61862L2134.84 2.83278C2130.51 0.650583 2124.44 -0.394301 2116.71 -0.394301V1.6057ZM2133.94 4.61862C2137.8 6.56741 2139.75 9.33449 2140 12.9465L2141.99 12.8089C2141.69 8.37824 2139.23 5.04399 2134.84 2.83278L2133.94 4.61862ZM2140.8 11.8963L2128.84 14.2363L2129.23 16.1991L2141.19 13.8591L2140.8 11.8963ZM2130.03 15.1465C2129.86 12.7508 2128.41 11.0329 2126 9.98487L2125.2 11.8185C2127.09 12.6425 2127.93 13.802 2128.04 15.2889L2130.03 15.1465ZM2126.02 9.99287C2123.7 8.92884 2120.21 8.4457 2115.67 8.4457V10.4457C2120.14 10.4457 2123.27 10.9332 2125.18 11.8105L2126.02 9.99287ZM2115.67 8.4457C2111.05 8.4457 2107.19 9.02548 2104.12 10.2309L2104.85 12.0925C2107.61 11.0099 2111.2 10.4457 2115.67 10.4457V8.4457ZM2104.13 10.2272C2101.11 11.3805 2098.78 12.9477 2097.24 14.9793L2098.84 16.1841C2100.08 14.5411 2102.05 13.1615 2104.85 12.0962L2104.13 10.2272ZM2097.24 14.9817C2095.77 16.9389 2095.01 19.0699 2095.01 21.3537H2097.01C2097.01 19.5469 2097.61 17.8298 2098.84 16.1817L2097.24 14.9817ZM2095.01 21.3537C2095.01 24.3576 2096.39 26.7017 2099.03 28.2941L2100.07 26.5813C2097.99 25.3311 2097.01 23.6191 2097.01 21.3537H2095.01ZM2099.05 28.3028C2101.67 29.8227 2105.54 30.5177 2110.52 30.5177V28.5177C2105.66 28.5177 2102.21 27.8261 2100.05 26.5726L2099.05 28.3028ZM2110.52 30.5177C2114.67 30.5177 2118.21 30.1319 2121.13 29.3387L2120.61 27.4087C2117.91 28.1409 2114.56 28.5177 2110.52 28.5177V30.5177ZM2121.13 29.3387C2124.07 28.5409 2126.46 27.2526 2128.24 25.4333L2126.81 24.0341C2125.33 25.5428 2123.29 26.6811 2120.61 27.4087L2121.13 29.3387ZM2127.53 23.7337H2111.3V25.7337H2127.53V23.7337ZM2112.27 24.9918L2114.3 17.3998L2112.36 16.8836L2110.34 24.4756L2112.27 24.9918ZM2113.33 18.1417L2141.72 18.1417V16.1417L2113.33 16.1417V18.1417ZM2140.76 16.8825L2135.24 37.4225L2137.18 37.9409L2142.69 17.4009L2140.76 16.8825ZM2136.21 36.6817H2127.37V38.6817H2136.21V36.6817ZM2128.36 37.782L2128.99 31.594L2127 31.3934L2126.37 37.5814L2128.36 37.782ZM2127.34 30.7373C2124.88 32.8608 2121.94 34.4983 2118.48 35.6401L2119.1 37.5393C2122.78 36.3238 2125.97 34.5639 2128.65 32.2501L2127.34 30.7373ZM2118.47 35.641C2115.05 36.7807 2111.23 37.3577 2106.99 37.3577V39.3577C2111.41 39.3577 2115.45 38.7561 2119.11 37.5384L2118.47 35.641ZM2106.99 37.3577C2099.23 37.3577 2093.7 35.9957 2090.21 33.4426L2089.03 35.0568C2093.02 37.9811 2099.07 39.3577 2106.99 39.3577V37.3577ZM2090.22 33.4488C2086.78 30.8822 2085.05 27.2923 2085.05 22.5497H2083.05C2083.05 27.8605 2085.03 32.0705 2089.02 35.0506L2090.22 33.4488ZM2145.82 37.6817L2144.85 37.4223L2144.51 38.6817H2145.82V37.6817ZM2155.59 1.2817V0.281699H2154.82L2154.63 1.02232L2155.59 1.2817ZM2201.4 1.2817L2202.37 1.54013L2202.71 0.281699H2201.4V1.2817ZM2199.22 9.4457V10.4457H2199.99L2200.19 9.70413L2199.22 9.4457ZM2164.54 9.4457V8.4457H2163.77L2163.57 9.18637L2164.54 9.4457ZM2163.03 15.0617L2162.06 14.8024L2161.72 16.0617H2163.03V15.0617ZM2194.12 15.0617L2195.09 15.3217L2195.43 14.0617H2194.12V15.0617ZM2191.94 23.1737V24.1737H2192.71L2192.9 23.4337L2191.94 23.1737ZM2160.9 23.1737V22.1737H2160.13L2159.93 22.9126L2160.9 23.1737ZM2159.18 29.5177L2158.21 29.2566L2157.87 30.5177H2159.18V29.5177ZM2194.23 29.5177L2195.19 29.7761L2195.53 28.5177H2194.23V29.5177ZM2192.04 37.6817V38.6817H2192.81L2193.01 37.9401L2192.04 37.6817ZM2146.78 37.9411L2156.56 1.54108L2154.63 1.02232L2144.85 37.4223L2146.78 37.9411ZM2155.59 2.2817L2201.4 2.2817V0.281699L2155.59 0.281699V2.2817ZM2200.44 1.02327L2198.25 9.18727L2200.19 9.70413L2202.37 1.54013L2200.44 1.02327ZM2199.22 8.4457L2164.54 8.4457V10.4457L2199.22 10.4457V8.4457ZM2163.57 9.18637L2162.06 14.8024L2163.99 15.321L2165.5 9.70503L2163.57 9.18637ZM2163.03 16.0617L2194.12 16.0617V14.0617L2163.03 14.0617V16.0617ZM2193.16 14.8017L2190.97 22.9137L2192.9 23.4337L2195.09 15.3217L2193.16 14.8017ZM2191.94 22.1737H2160.9V24.1737H2191.94V22.1737ZM2159.93 22.9126L2158.21 29.2566L2160.14 29.7788L2161.86 23.4348L2159.93 22.9126ZM2159.18 30.5177H2194.23V28.5177H2159.18V30.5177ZM2193.26 29.2593L2191.08 37.4233L2193.01 37.9401L2195.19 29.7761L2193.26 29.2593ZM2192.04 36.6817H2145.82V38.6817H2192.04V36.6817ZM2200.35 37.6817L2199.39 37.4223L2199.05 38.6817H2200.35V37.6817ZM2210.13 1.2817V0.281699H2209.36L2209.16 1.02232L2210.13 1.2817ZM2221.26 1.2817L2222 0.616107L2221.71 0.281699H2221.26V1.2817ZM2243.98 26.7617L2243.24 27.4273L2244.47 28.8106L2244.95 27.02L2243.98 26.7617ZM2250.79 1.2817V0.281699H2250.03L2249.83 1.02342L2250.79 1.2817ZM2261.61 1.2817L2262.58 1.53979L2262.91 0.281699L2261.61 0.281699V1.2817ZM2251.89 37.6817V38.6817H2252.65L2252.85 37.9398L2251.89 37.6817ZM2240.76 37.6817L2240.01 38.3473L2240.31 38.6817H2240.76V37.6817ZM2218.03 12.2017L2218.78 11.5361L2217.55 10.156L2217.07 11.9416L2218.03 12.2017ZM2211.17 37.6817V38.6817H2211.94L2212.14 37.9418L2211.17 37.6817ZM2201.32 37.9411L2211.1 1.54108L2209.16 1.02232L2199.39 37.4223L2201.32 37.9411ZM2210.13 2.2817L2221.26 2.2817V0.281699L2210.13 0.281699V2.2817ZM2220.51 1.94729L2243.24 27.4273L2244.73 26.0961L2222 0.616107L2220.51 1.94729ZM2244.95 27.02L2251.76 1.53998L2249.83 1.02342L2243.02 26.5034L2244.95 27.02ZM2250.79 2.2817H2261.61V0.281699H2250.79V2.2817ZM2260.64 1.02361L2250.92 37.4236L2252.85 37.9398L2262.58 1.53979L2260.64 1.02361ZM2251.89 36.6817H2240.76V38.6817H2251.89V36.6817ZM2241.5 37.0161L2218.78 11.5361L2217.29 12.8673L2240.01 38.3473L2241.5 37.0161ZM2217.07 11.9416L2210.2 37.4216L2212.14 37.9418L2219 12.4618L2217.07 11.9416ZM2211.17 36.6817L2200.35 36.6817V38.6817L2211.17 38.6817V36.6817ZM2266.76 13.9177L2267.64 14.4053L2267.64 14.4005L2266.76 13.9177ZM2273.21 6.8977L2272.64 6.07658L2272.64 6.0799L2273.21 6.8977ZM2314.86 3.8297L2314.4 4.71656L2314.41 4.71813L2314.86 3.8297ZM2321.47 13.2417L2321.67 14.2221L2322.52 14.0509L2322.47 13.183L2321.47 13.2417ZM2309.56 15.6337L2308.56 15.7002L2308.64 16.8389L2309.76 16.6141L2309.56 15.6337ZM2306.13 11.0057L2305.69 11.9059L2305.71 11.9115L2306.13 11.0057ZM2285.02 11.1617L2285.37 12.0962L2285.38 12.0925L2285.02 11.1617ZM2278.57 15.5817L2277.77 14.9793L2277.77 14.9817L2278.57 15.5817ZM2279.92 27.4377L2279.39 28.2835L2279.39 28.2883L2279.4 28.2929L2279.92 27.4377ZM2300.82 27.9577L2300.46 27.0275L2300.45 27.0292L2300.82 27.9577ZM2306.86 23.1217L2307.05 22.1413L2306.38 22.006L2306.01 22.5857L2306.86 23.1217ZM2318.24 25.4097L2319.13 25.8737L2319.75 24.6921L2318.44 24.4293L2318.24 25.4097ZM2312.21 32.6377L2311.61 31.843L2311.6 31.8472L2312.21 32.6377ZM2302.85 36.9537L2303.09 37.9244L2303.1 37.9223L2302.85 36.9537ZM2270.82 34.2497L2270.27 35.087L2270.28 35.0891L2270.82 34.2497ZM2265.53 22.6017C2265.53 19.6487 2266.23 16.9224 2267.64 14.4053L2265.89 13.4301C2264.32 16.2517 2263.53 19.3147 2263.53 22.6017H2265.53ZM2267.64 14.4005C2269.05 11.8438 2271.09 9.61399 2273.79 7.71551L2272.64 6.0799C2269.72 8.13342 2267.46 10.5836 2265.89 13.4349L2267.64 14.4005ZM2273.78 7.71881C2276.52 5.81901 2279.84 4.31894 2283.77 3.23369L2283.24 1.30571C2279.13 2.43912 2275.59 4.02439 2272.64 6.07659L2273.78 7.71881ZM2283.77 3.23369C2287.69 2.15285 2292.16 1.6057 2297.18 1.6057V-0.394301C2292.02 -0.394301 2287.37 0.167886 2283.24 1.30571L2283.77 3.23369ZM2297.18 1.6057C2304.78 1.6057 2310.48 2.67482 2314.4 4.71655L2315.33 2.94285C2310.99 0.68591 2304.91 -0.394301 2297.18 -0.394301V1.6057ZM2314.41 4.71813C2318.3 6.73122 2320.25 9.58012 2320.47 13.3004L2322.47 13.183C2322.2 8.65261 2319.75 5.22684 2315.32 2.94127L2314.41 4.71813ZM2321.27 12.2613L2309.36 14.6533L2309.76 16.6141L2321.67 14.2221L2321.27 12.2613ZM2310.56 15.5672C2310.39 13.0667 2308.98 11.2337 2306.55 10.0999L2305.71 11.9115C2307.58 12.7884 2308.45 14.0407 2308.56 15.7002L2310.56 15.5672ZM2306.56 10.1055C2304.21 8.96472 2300.71 8.4457 2296.2 8.4457V10.4457C2300.63 10.4457 2303.75 10.9667 2305.69 11.9059L2306.56 10.1055ZM2296.2 8.4457C2291.58 8.4457 2287.72 9.02548 2284.65 10.2309L2285.38 12.0925C2288.14 11.0099 2291.73 10.4457 2296.2 10.4457V8.4457ZM2284.66 10.2272C2281.63 11.3805 2279.3 12.9477 2277.77 14.9793L2279.37 16.1841C2280.61 14.5411 2282.58 13.1615 2285.37 12.0962L2284.66 10.2272ZM2277.77 14.9817C2276.3 16.9389 2275.54 19.0699 2275.54 21.3537H2277.54C2277.54 19.5469 2278.13 17.8298 2279.37 16.1817L2277.77 14.9817ZM2275.54 21.3537C2275.54 24.3363 2276.85 26.6815 2279.39 28.2835L2280.45 26.5919C2278.49 25.3512 2277.54 23.6404 2277.54 21.3537H2275.54ZM2279.4 28.2929C2281.93 29.8247 2285.76 30.5177 2290.74 30.5177V28.5177C2285.87 28.5177 2282.49 27.8241 2280.44 26.5825L2279.4 28.2929ZM2290.74 30.5177C2294.93 30.5177 2298.44 29.9902 2301.2 28.8862L2300.45 27.0292C2298.01 28.0052 2294.79 28.5177 2290.74 28.5177V30.5177ZM2301.19 28.8879C2304 27.778 2306.19 26.0373 2307.7 23.6577L2306.01 22.5857C2304.75 24.5741 2302.92 26.0574 2300.46 27.0275L2301.19 28.8879ZM2306.66 24.1021L2318.05 26.3901L2318.44 24.4293L2307.05 22.1413L2306.66 24.1021ZM2317.36 24.9457C2315.9 27.7346 2313.98 30.0291 2311.61 31.843L2312.82 33.4324C2315.44 31.433 2317.54 28.9088 2319.13 25.8737L2317.36 24.9457ZM2311.6 31.8472C2309.27 33.6521 2306.28 35.0401 2302.6 35.9851L2303.1 37.9223C2306.98 36.926 2310.23 35.4367 2312.83 33.4283L2311.6 31.8472ZM2302.61 35.983C2298.94 36.8937 2294.43 37.3577 2289.07 37.3577V39.3577C2294.53 39.3577 2299.21 38.8857 2303.09 37.9244L2302.61 35.983ZM2289.07 37.3577C2281.23 37.3577 2275.36 35.9999 2271.36 33.4103L2270.28 35.0891C2274.74 37.9768 2281.04 39.3577 2289.07 39.3577V37.3577ZM2271.37 33.4124C2267.46 30.8591 2265.53 27.292 2265.53 22.6017H2263.53C2263.53 27.9647 2265.8 32.163 2270.27 35.087L2271.37 33.4124ZM2336 37.6817L2335.03 37.4222L2334.69 38.6817H2336V37.6817ZM2339.74 23.7457L2340.71 24.0052L2340.83 23.5567L2340.56 23.1753L2339.74 23.7457ZM2324.14 1.2817V0.281699H2322.23L2323.32 1.85209L2324.14 1.2817ZM2337.76 1.2817L2338.59 0.715567L2338.29 0.281699H2337.76V1.2817ZM2347.23 15.0617L2346.4 15.6278L2347.03 16.5368L2347.87 15.8269L2347.23 15.0617ZM2363.61 1.2817V0.281699H2363.24L2362.96 0.516473L2363.61 1.2817ZM2378.64 1.2817L2379.28 2.04601L2381.37 0.281699H2378.64V1.2817ZM2351.02 24.5777L2350.38 23.8134L2350.14 24.0151L2350.06 24.3172L2351.02 24.5777ZM2347.49 37.6817V38.6817H2348.25L2348.45 37.9422L2347.49 37.6817ZM2336.96 37.9412L2340.71 24.0052L2338.77 23.4862L2335.03 37.4222L2336.96 37.9412ZM2340.56 23.1753L2324.96 0.711304L2323.32 1.85209L2338.92 24.3161L2340.56 23.1753ZM2324.14 2.2817L2337.76 2.2817V0.281699L2324.14 0.281699V2.2817ZM2336.94 1.84783L2346.4 15.6278L2348.05 14.4956L2338.59 0.715567L2336.94 1.84783ZM2347.87 15.8269L2364.25 2.04693L2362.96 0.516473L2346.58 14.2965L2347.87 15.8269ZM2363.61 2.2817L2378.64 2.2817V0.281699L2363.61 0.281699V2.2817ZM2377.99 0.517385L2350.38 23.8134L2351.67 25.342L2379.28 2.04601L2377.99 0.517385ZM2350.06 24.3172L2346.52 37.4212L2348.45 37.9422L2351.99 24.8382L2350.06 24.3172ZM2347.49 36.6817H2336V38.6817H2347.49V36.6817Z" fill="#373737"/>
</svg>
