<svg width="112" height="112" viewBox="0 0 112 112" fill="none" xmlns="http://www.w3.org/2000/svg">
<g clip-path="url(#clip0_1_24)">
<path d="M50.3861 107.812C48.8008 107.641 48.244 107.386 48.1154 106.88L45.7876 107.006C46.1288 108.303 47.4189 108.981 50.2386 109.285C53.1602 109.601 54.8173 109.001 54.9616 107.664C55.0887 106.487 54.1279 105.73 51.669 105.373L49.3347 105.029C48.4891 104.904 48.2635 104.765 48.294 104.482C48.3307 104.142 49.0034 104.066 50.8945 104.27C52.276 104.419 52.9537 104.721 53.0762 105.284L55.4833 105.166C55.1066 103.774 53.8755 103.079 51.0332 102.773C47.7266 102.416 46.0581 103.015 45.898 104.498C45.7757 105.63 46.6683 106.277 49.0228 106.645L51.347 106.976L51.6793 107.031C52.4377 107.164 52.665 107.29 52.638 107.54C52.6001 107.891 51.9602 107.982 50.3861 107.812ZM44.7823 102.008L42.515 101.211L41.7259 103.457C41.2766 104.736 40.0306 105.155 38.3865 104.578C37.226 104.17 36.8162 103.446 37.156 102.479L38.1414 99.6746L35.8741 98.8779L34.73 102.134C34.092 103.95 34.8767 105.324 37.0366 106.083C38.4336 106.574 39.8183 106.481 40.865 105.907L39.6833 109.271L41.9506 110.067L44.7823 102.008ZM30.354 95.3622C27.5684 93.5451 25.4011 93.532 24.2499 95.2969C23.1111 97.0426 24.0032 99.0524 26.7697 100.857C29.5266 102.655 31.7445 102.674 32.8833 100.929C34.0221 99.1828 33.111 97.1606 30.354 95.3622ZM29.3957 96.8313C30.9697 97.858 31.4014 98.6972 30.8227 99.5844C30.244 100.472 29.302 100.415 27.728 99.3879C26.1539 98.3611 25.7318 97.5282 26.3105 96.641C26.8892 95.7538 27.8216 95.8045 29.3957 96.8313ZM23.4358 89.9746L22.049 88.3881L17.5708 89.4434L19.2231 85.1551L17.8439 83.5772L11.0659 85.3417L12.7 87.2111L16.7197 86.0121L15.1962 90.0668L16.6429 91.7219L20.8328 90.6311L19.1315 94.569L20.848 96.5328L23.4358 89.9746ZM15.3347 80.3379L14.2254 78.2061L12.2956 79.2103C11.1235 79.8202 9.94752 79.238 9.10629 77.6215C8.90649 77.2375 8.75237 76.8426 8.68073 76.5076L6.6636 77.4674C6.70123 77.589 6.78618 77.8016 6.85453 77.933C7.56957 79.3071 8.76063 80.1895 10.0481 80.4183L8.76298 81.2797L9.77771 83.2297L15.3347 80.3379ZM10.7983 68.8637C9.96471 65.9628 9.01484 64.8018 7.61905 64.646L7.88092 67.0831C8.36447 67.1574 8.78008 67.8201 9.21105 69.3199C9.65775 70.8743 9.56842 71.8006 8.92923 72.2569L6.81843 64.9116C6.59785 64.9276 6.41956 64.967 6.14589 65.0456C4.25209 65.5898 3.65621 67.7638 4.515 70.7523C5.39896 73.8284 7.1394 75.3073 9.07698 74.7505C11.0693 74.178 11.7012 72.0055 10.7983 68.8637ZM6.03346 70.3041C5.62136 68.8701 5.67018 68.0502 6.27023 67.5815L7.7047 72.5732C6.96925 72.4883 6.46128 71.7929 6.03346 70.3041ZM9.05449 58.0322C8.91718 55.017 8.26283 53.6672 6.94139 53.1915L6.63024 55.6228C7.08331 55.8074 7.33369 56.5485 7.40467 58.1073C7.47825 59.723 7.17628 60.6033 6.44863 60.8987L6.10096 53.264C5.88271 53.2283 5.70014 53.2252 5.41569 53.2382C3.44729 53.3278 2.36292 55.3041 2.50436 58.4103C2.64996 61.6075 3.99945 63.4501 6.01336 63.3584C8.08416 63.2641 9.20319 61.2977 9.05449 58.0322ZM4.08539 58.3269C4.01752 56.8364 4.25536 56.0502 4.94784 55.7337L5.18411 60.922C4.48847 60.6687 4.15586 59.8743 4.08539 58.3269ZM9.05611 49.2449L0.571339 48.2546L0.292725 50.6416L8.7775 51.632L9.05611 49.2449ZM8.44151 34.6793L8.6222 34.2907C9.17565 33.1437 9.5602 32.7781 10.032 32.8095L10.633 30.5571C9.29416 30.4794 8.24993 31.4959 7.08649 34.0823C5.88099 36.7622 5.93785 38.5238 7.16356 39.0751C8.24384 39.5611 9.26111 38.8822 10.3628 36.6551L11.4131 34.5423C11.7947 33.7773 11.9967 33.6059 12.2564 33.7227C12.568 33.8629 12.432 34.5261 11.6517 36.2607C11.0817 37.528 10.5842 38.0786 10.0109 38.0205L9.37713 40.3456C10.8178 40.4192 11.8594 39.464 13.0322 36.8567C14.3966 33.8236 14.3444 32.0517 12.9836 31.4396C11.9449 30.9723 11.0538 31.6206 9.9734 33.7448L8.93816 35.8519L8.78362 36.1511C8.42148 36.8307 8.23161 37.0078 8.00248 36.9047C7.68047 36.7599 7.79204 36.1232 8.44151 34.6793ZM15.6858 31.1603L17.1437 29.2498L15.2514 27.8056C14.1739 26.9834 14.1598 25.6688 15.217 24.2835C15.9633 23.3056 16.7779 23.1393 17.5928 23.7612L19.956 25.5646L21.414 23.6541L18.6705 21.5605C17.1403 20.3927 15.5908 20.7146 14.2019 22.5346C13.3037 23.7117 12.9644 25.0574 13.1869 26.2302L10.3529 24.0675L8.89494 25.9779L15.6858 31.1603ZM26.4488 19.4805C29.032 17.3857 29.7085 15.3266 28.3813 13.69C27.0685 12.0711 24.882 12.3044 22.3165 14.3849C19.7599 16.4582 19.0623 18.5636 20.3752 20.1825C21.688 21.8014 23.8921 21.5538 26.4488 19.4805ZM25.344 18.1181C23.8843 19.3018 22.9532 19.4557 22.286 18.6329C21.6188 17.8102 21.9617 16.931 23.4213 15.7473C24.881 14.5635 25.8033 14.4169 26.4705 15.2396C27.1376 16.0624 26.8037 16.9344 25.344 18.1181ZM33.7162 14.5432L35.6527 13.7128L36.0286 9.12728L39.5991 12.0204L41.5252 11.1944L41.9349 4.20255L39.6529 5.18117L39.5551 9.37474L36.1671 6.67603L34.1468 7.54243L33.8935 11.8646L30.6714 9.0328L28.2743 10.0608L33.7162 14.5432ZM45.3641 9.81412L47.7349 9.42035L47.3785 7.27429C47.162 5.97093 48.08 5.03333 49.8778 4.73473C50.3047 4.66382 50.7279 4.63971 51.0687 4.67548L50.7816 2.46018C50.6542 2.45823 50.4258 2.47309 50.2797 2.49735C48.7516 2.75115 47.5434 3.60995 46.9267 4.76305L46.5063 3.2742L44.3377 3.63438L45.3641 9.81412ZM57.693 9.0382C60.7097 9.13613 62.1064 8.58889 62.6836 7.3085L60.2839 6.80895C60.0645 7.24627 59.3062 7.43817 57.7466 7.38754C56.1301 7.33506 55.276 6.96546 55.0382 6.21701L62.6768 6.46499C62.7293 6.25017 62.7466 6.0684 62.7558 5.7838C62.8198 3.8144 60.934 2.57941 57.8262 2.47852C54.6273 2.37468 52.6852 3.57657 52.6198 5.5915C52.5525 7.66336 54.4259 8.93213 57.693 9.0382ZM57.7862 4.06124C59.2775 4.10965 60.0427 4.408 60.3044 5.12303L55.1134 4.95452C55.4201 4.28072 56.238 4.01098 57.7862 4.06124ZM68.531 10.7069C71.4427 11.5022 72.9282 11.2939 73.7867 10.1824L71.5684 9.13968C71.2536 9.51418 70.4714 9.52488 68.9661 9.11376C67.4059 8.68764 66.6609 8.12995 66.6032 7.34675L73.9758 9.36033C74.0768 9.16357 74.1358 8.99077 74.2108 8.71609C74.7299 6.81527 73.1821 5.17642 70.1826 4.35718C67.0951 3.51394 64.9271 4.2324 64.396 6.17717C63.8498 8.17688 65.3776 9.84569 68.531 10.7069ZM69.7765 5.88743C71.2158 6.28055 71.8909 6.7483 71.9796 7.50454L66.9693 6.13615C67.424 5.55193 68.2822 5.47932 69.7765 5.88743ZM76.902 13.4224L80.4746 5.66294L78.2916 4.65784L74.719 12.4173L76.902 13.4224ZM90.9213 17.3219L91.2355 17.6134C92.1565 18.4929 92.3861 18.9713 92.211 19.4105L94.1693 20.6754C94.6552 19.4254 94.0093 18.1191 91.9063 16.2163C89.7273 14.2447 88.0337 13.7568 87.1319 14.7534C86.3372 15.6317 86.6702 16.8085 88.4502 18.542L90.1373 20.1915C90.7478 20.7899 90.8488 21.0349 90.6577 21.246C90.4285 21.4994 89.8393 21.1659 88.4289 19.8898C87.3985 18.9575 87.0277 18.3148 87.2593 17.7871L85.242 16.4687C84.7288 17.8168 85.3171 19.1018 87.437 21.0199C89.9032 23.2513 91.6052 23.7468 92.6063 22.6405C93.3705 21.7959 93.0279 20.7486 91.3391 19.067L89.6528 17.4336L89.4157 17.1945C88.8805 16.6409 88.7704 16.4057 88.9389 16.2194C89.1758 15.9576 89.7473 16.2596 90.9213 17.3219ZM92.0471 25.3028L93.4184 27.2764L95.3733 25.918C96.4863 25.1446 97.7419 25.5342 98.7363 26.9653C99.4382 27.9755 99.3468 28.8019 98.505 29.3868L96.0637 31.0832L97.4351 33.0567L100.269 31.0874C101.85 29.989 102.019 28.4154 100.712 26.5354C99.8673 25.3195 98.6904 24.5839 97.5058 24.4361L100.433 22.4018L99.062 20.4282L92.0471 25.3028ZM99.8588 39.1468C101.054 42.2506 102.803 43.5297 104.77 42.7726C106.715 42.0236 107.168 39.872 105.981 36.7895C104.798 33.7177 103.011 32.4042 101.066 33.1532C99.1209 33.9021 98.6761 36.075 99.8588 39.1468ZM101.496 38.5166C100.82 36.7628 100.962 35.8297 101.95 35.4491C102.939 35.0685 103.669 35.666 104.344 37.4198C105.02 39.1736 104.874 40.0961 103.886 40.4767C102.897 40.8573 102.171 40.2704 101.496 38.5166ZM102.303 47.5616L102.494 49.6601L106.738 51.4362L102.882 53.9364L103.072 56.0236L109.594 58.5765L109.369 56.1036L105.412 54.7132L109.026 52.3264L108.827 50.1371L104.796 48.559L108.485 46.3712L108.25 43.7736L102.303 47.5616ZM103.208 60.1186L102.858 62.4963L105.011 62.813C106.318 63.0054 106.93 64.1661 106.665 65.9691C106.602 66.3973 106.495 66.8076 106.357 67.1211L108.554 67.525C108.595 67.4044 108.65 67.1823 108.672 67.0358C108.897 65.5033 108.449 64.0904 107.54 63.1507L109.086 63.2056L109.406 61.0307L103.208 60.1186ZM100.161 72.0744C99.1361 74.9135 99.2254 76.4109 100.265 77.3552L101.481 75.227C101.133 74.8834 101.185 74.1028 101.714 72.6351C102.263 71.1138 102.879 70.4156 103.664 70.4205L101.069 77.6092C101.257 77.7255 101.425 77.7981 101.693 77.8948C103.546 78.5637 105.303 77.1514 106.359 74.2266C107.445 71.2162 106.902 68.9978 105.006 68.3134C103.056 67.6097 101.271 68.9997 100.161 72.0744ZM104.866 73.6999C104.359 75.1033 103.839 75.739 103.078 75.7672L104.841 70.8818C105.388 71.3817 105.392 72.2429 104.866 73.6999ZM95.2316 81.8645C93.5749 84.3875 93.3136 85.8646 94.1051 87.0248L95.7827 85.2377C95.5239 84.8225 95.7556 84.0753 96.6121 82.771C97.4998 81.419 98.2605 80.883 99.0232 81.0703L94.8284 87.4588C94.9843 87.6157 95.1304 87.7252 95.3684 87.8815C97.0155 88.963 99.0527 87.9979 100.759 85.3987C102.516 82.7233 102.503 80.4394 100.818 79.3329C99.0852 78.1952 97.0257 79.132 95.2316 81.8645ZM99.4297 84.5393C98.6107 85.7865 97.9571 86.2839 97.2106 86.1343L100.061 81.7928C100.476 82.4059 100.28 83.2444 99.4297 84.5393ZM90.0585 88.9964L91.6868 87.2288L97.9696 93.0166L96.3413 94.7842L90.0585 88.9964Z" fill="white"/>
</g>
<circle cx="56" cy="56" r="3.79661" fill="black"/>
<defs>
<clipPath id="clip0_1_24">
<rect width="110.102" height="108.203" fill="white" transform="translate(0 1.8983)"/>
</clipPath>
</defs>
</svg>
